<svg width="89" height="88" viewBox="0 0 89 88" fill="none" xmlns="http://www.w3.org/2000/svg">
<path d="M12.0642 17.9427C12.6586 16.091 15.2786 16.091 15.8729 17.9427L16.6325 20.3096C16.8981 21.1371 17.6678 21.6984 18.5369 21.6984H21.0468C22.9783 21.6984 23.7878 24.1651 22.2319 25.3095L20.1592 26.834C19.4668 27.3432 19.1772 28.2379 19.4399 29.0563L20.2216 31.4918C20.8144 33.3388 18.6948 34.8635 17.1322 33.7142L15.1536 32.2588C14.4486 31.7404 13.4885 31.7404 12.7836 32.2588L10.8049 33.7142C9.24228 34.8635 7.12276 33.3388 7.71555 31.4918L8.49725 29.0563C8.75991 28.2379 8.47033 27.3432 7.77794 26.834L5.70526 25.3095C4.14931 24.1651 4.95877 21.6984 6.89027 21.6984H9.40026C10.2694 21.6984 11.039 21.1371 11.3046 20.3096L12.0642 17.9427Z" fill="#FFCE28"/>
<path d="M42.3311 17.9427C42.9254 16.091 45.5454 16.091 46.1397 17.9427L46.8994 20.3096C47.165 21.1371 47.9346 21.6984 48.8037 21.6984H51.3137C53.2452 21.6984 54.0547 24.1651 52.4987 25.3095L50.426 26.834C49.7336 27.3432 49.444 28.2379 49.7067 29.0563L50.4884 31.4918C51.0812 33.3388 48.9617 34.8635 47.3991 33.7142L45.4204 32.2588C44.7155 31.7404 43.7553 31.7404 43.0504 32.2588L41.0717 33.7142C39.5091 34.8635 37.3896 33.3388 37.9824 31.4918L38.7641 29.0563C39.0268 28.2379 38.7372 27.3432 38.0448 26.834L35.9721 25.3095C34.4162 24.1651 35.2256 21.6984 37.1571 21.6984H39.6671C40.5362 21.6984 41.3058 21.1371 41.5714 20.3096L42.3311 17.9427Z" fill="#FFCE28"/>
<path d="M72.5977 17.9427C73.192 16.091 75.812 16.091 76.4063 17.9427L77.166 20.3096C77.4316 21.1371 78.2012 21.6984 79.0703 21.6984H81.5803C83.5118 21.6984 84.3213 24.1651 82.7653 25.3095L80.6926 26.834C80.0002 27.3432 79.7107 28.2379 79.9733 29.0563L80.755 31.4918C81.3478 33.3388 79.2283 34.8635 77.6657 33.7142L75.687 32.2588C74.9821 31.7404 74.0219 31.7404 73.317 32.2588L71.3383 33.7142C69.7757 34.8635 67.6562 33.3388 68.249 31.4918L69.0307 29.0563C69.2934 28.2379 69.0038 27.3432 68.3114 26.834L66.2387 25.3095C64.6828 24.1651 65.4922 21.6984 67.4237 21.6984H69.9337C70.8028 21.6984 71.5724 21.1371 71.838 20.3096L72.5977 17.9427Z" fill="#FFCE28"/>
<path d="M44.2352 60.2311C49.6183 60.2311 53.9821 55.8673 53.9821 50.4842C53.9821 45.1011 49.6183 40.7373 44.2352 40.7373C38.8521 40.7373 34.4883 45.1011 34.4883 50.4842C34.4883 55.8673 38.8521 60.2311 44.2352 60.2311Z" fill="#2C2E35"/>
<path d="M72.9629 61.9256C76.8778 61.9256 80.0515 58.7519 80.0515 54.837C80.0515 50.922 76.8778 47.7483 72.9629 47.7483C69.0479 47.7483 65.8742 50.922 65.8742 54.837C65.8742 58.7519 69.0479 61.9256 72.9629 61.9256Z" fill="#2C2E35"/>
<path d="M61.1641 69.294L60.6511 70.32L60.7366 70.662L60.9931 71.0895L61.2496 71.6025L61.5061 72.1155L61.7626 72.714L62.0191 73.398L62.2756 74.082L62.4466 74.6805L62.6176 75.3645L62.8741 76.476L63.0451 77.5019L63.1306 78.3569V79.2119V80.0669V80.9219L63.0451 81.8624L63.9856 81.9479L64.5841 82.0334H66.2086L67.8331 81.8624H68.9446H69.6286H70.4835H71.082H71.766H74.844L78.6915 82.0334H80.0595H82.2824L83.3939 81.8624L84.7619 81.4349L85.5314 80.8364L86.0444 80.1524L86.3009 79.5539L86.4719 79.0409L86.6429 77.9294L86.7284 77.0744V75.963L86.6429 74.595L86.4719 73.3125L86.0444 71.859L85.5314 70.491L84.8474 69.2085L84.0779 68.0115L83.1374 66.9L82.197 65.9595L81.4275 65.2755L80.4015 64.5915L79.2045 63.9076L77.6655 63.2236L76.4685 62.8816L75.1005 62.5396L74.0745 62.4541H73.2195H71.6805L71.082 62.5396L70.3125 62.7106L69.4576 62.8816L68.4316 63.2236L67.4056 63.6511L66.3796 64.164L65.2681 64.848L64.4131 65.532L63.6436 66.1305L63.1306 66.6435L62.6176 67.242L62.1046 67.926L61.5916 68.61L61.1641 69.294Z" fill="#2C2E35"/>
<path d="M15.5076 61.9256C19.4226 61.9256 22.5963 58.7519 22.5963 54.837C22.5963 50.922 19.4226 47.7483 15.5076 47.7483C11.5927 47.7483 8.41895 50.922 8.41895 54.837C8.41895 58.7519 11.5927 61.9256 15.5076 61.9256Z" fill="#2C2E35"/>
<path d="M27.3066 69.294L27.8196 70.32L27.7341 70.662L27.4776 71.0895L27.2211 71.6025L26.9646 72.1155L26.7081 72.714L26.4516 73.398L26.1951 74.082L26.0241 74.6805L25.8531 75.3645L25.5966 76.476L25.4256 77.5019L25.3401 78.3569V79.2119V80.0669V80.9219L25.4256 81.8624L24.4851 81.9479L23.8866 82.0334H22.2621L20.6376 81.8624H19.5261H18.8422H17.9872H17.3887H16.7047H13.6267L9.77924 82.0334H8.41126H6.18827L5.07678 81.8624L3.70879 81.4349L2.9393 80.8364L2.4263 80.1524L2.1698 79.5539L1.99881 79.0409L1.82781 77.9294L1.74231 77.0744V75.963L1.82781 74.595L1.99881 73.3125L2.4263 71.859L2.9393 70.491L3.62329 69.2085L4.39279 68.0115L5.33328 66.9L6.27377 65.9595L7.04327 65.2755L8.06926 64.5915L9.26625 63.9076L10.8052 63.2236L12.0022 62.8816L13.3702 62.5396L14.3962 62.4541H15.2512H16.7902L17.3887 62.5396L18.1582 62.7106L19.0132 62.8816L20.0391 63.2236L21.0651 63.6511L22.0911 64.164L23.2026 64.848L24.0576 65.532L24.8271 66.1305L25.3401 66.6435L25.8531 67.242L26.3661 67.926L26.8791 68.61L27.3066 69.294Z" fill="#2C2E35"/>
<path d="M61.3352 80.238C61.3352 89.682 56.4384 87.3889 44.2354 87.3889C31.255 87.3889 27.1355 89.682 27.1355 80.238C27.1355 70.794 34.7914 63.1382 44.2354 63.1382C53.6794 63.1382 61.3352 70.794 61.3352 80.238Z" fill="#2C2E35"/>
<path d="M30.6409 10.385L35.5143 14.7454" stroke="#2C2E35" stroke-width="5" stroke-linecap="round"/>
<path d="M57.9153 10.385L53.0418 14.7454" stroke="#2C2E35" stroke-width="5" stroke-linecap="round"/>
<path d="M44.2473 3.11768V8.33313" stroke="#2C2E35" stroke-width="5" stroke-linecap="round"/>
</svg>
