<svg xmlns="http://www.w3.org/2000/svg" xmlns:xlink="http://www.w3.org/1999/xlink" width="237" height="240" fill="none" xmlns:v="https://vecta.io/nano"><style><![CDATA[.B{fill:#2c2e35}.C{fill:#fff}.D{fill:#ffc727}.E{fill:#414249}.F{fill:#ad6359}.G{fill:#ffce28}.H{fill:#d2b357}.I{fill:#fff6dc}.J{fill:#f7a9a0}.K{fill:#eb9481}.L{fill:#dd6a57}]]></style><path d="M171.863 59.952c-1.843-11.037 5.61-21.479 16.648-23.322s21.478 5.61 23.321 16.648-5.61 21.479-16.647 23.322-21.479-5.61-23.322-16.647z" class="H"/><path d="M190.923 76.392c-10.678 0-19.334-8.656-19.334-19.334s8.656-19.334 19.334-19.334 19.333 8.656 19.333 19.334-8.656 19.334-19.333 19.334z" fill="#ffd04a"/><path d="M190.923 75.174a18.12 18.12 0 0 1-18.116-18.116 18.12 18.12 0 0 1 18.116-18.116 18.12 18.12 0 0 1 18.115 18.116 18.12 18.12 0 0 1-18.115 18.116z" class="C"/><path d="M190.752 40.263h.347v2.743h-.347v-2.743zm8.413 2.157l.306.176-1.372 2.376-.306-.176 1.372-2.376zm6.225 6.09l.173.301-2.375 1.372-.174-.301 2.376-1.372zm-.41 8.372h2.743v.353h-2.743v-.353zm-1.802 7.048l2.376 1.372-.174.301-2.375-1.372.173-.301zm-5.076 5.219l1.37 2.376-.305.176-1.371-2.376.306-.176zm-7.35 1.961h.347v2.743h-.347V71.11zm-7.004-1.974l.305.176-1.372 2.376-.305-.177 1.372-2.376zm-5.076-5.208l.174.301-2.376 1.372-.174-.301 2.376-1.372zm-4.545-7.046h2.744v.353h-2.744v-.353zm2.341-8.367l2.376 1.372-.173.301-2.376-1.372.173-.301zm6.21-6.086l1.37 2.377-.305.176-1.371-2.376.306-.176zm5.505 8.858l7.95 15.623-.309.158-7.95-15.623.309-.157z" class="H"/><path d="M191.922 50.855l.458.092-3.389 16.926-.457-.092 3.388-16.926z" class="B"/><g fill-rule="evenodd"><path d="M139.279 44.048c.444-.279.825-.683 1.423-.626.228 0 .176-.165.176-.29v-6.699a.37.37 0 0 0-.03-.224c-.034-.07-.089-.127-.158-.163-1.707-.859-2.441-2.55-3.488-3.984a6.66 6.66 0 0 1-1.134-2.407 6.65 6.65 0 0 1-.101-2.658c.068-.506-.165-.729-.621-.831a1.14 1.14 0 0 0-1.269.398 8.97 8.97 0 0 0-.979 2.925c-.097.848.205 1.673.313 2.51.08.615.222 1.224.336 1.844-.148.108-.324.051-.484.051h-5.657c-.797 0-1.184.228-1.298.751a1.52 1.52 0 0 0 .138.958c.149.296.39.535.688.681.136.068.392 0 .409.228s-.244.199-.375.29c-.683.472-.569 1.434.233 1.992.194.137.569.074.569.353s-.341.222-.495.376c-.569.569-.279 1.565.569 1.975.112.036.223.078.33.125.097.063.188.137 0 .262-.819.569-.802 1.4 0 1.992l.245.176c.3.178.649.253.996.216h8.873a1.04 1.04 0 0 0 .791-.222z" class="G"/><path d="M147.674 40.109v-4.257c0-.285 0-.427-.382-.427h-5.19c-.342 0-.393.114-.393.416v8.537c0 .359.097.467.461.455h5.031c.422 0 .478-.142.473-.507v-4.217z" class="E"/><path d="M17.028 121.51c-.444-.279-.831-.683-1.423-.627-.228 0-.176-.165-.182-.29v-6.699c0-.159 0-.295.182-.387 1.707-.859 2.447-2.549 3.495-3.983.535-.719.919-1.538 1.131-2.408s.247-1.774.104-2.658c-.074-.506.165-.728.615-.831a1.14 1.14 0 0 1 .702-.007 1.13 1.13 0 0 1 .573.406c.491.911.82 1.901.973 2.925.102.848-.205 1.673-.307 2.51-.08.615-.222 1.218-.341 1.844.154.108.324.051.484.051h5.663c.797 0 1.184.228 1.292.751.061.326.014.662-.134.958s-.389.535-.686.681c-.142.069-.398 0-.415.228s.25.199.376.29c.683.473.569 1.435-.233 1.992-.188.137-.569.074-.569.353s.336.222.495.376c.569.569.273 1.565-.569 1.975-.113.034-.223.075-.33.125-.097.063-.188.137 0 .262.814.569.797 1.4 0 1.992l-.245.176a1.61 1.61 0 0 1-.996.216h-8.873c-.138.017-.279.007-.412-.032a1.04 1.04 0 0 1-.367-.189z" class="G"/><path d="M8.616 117.571v-4.257c0-.285 0-.427.381-.427h5.191c.341 0 .393.114.393.416v8.565c0 .359-.097.461-.461.456H9.083c-.415 0-.472-.143-.472-.507l.006-4.246z" class="E"/></g><path d="M94.283 138.997v78.148H47.045v-78.148h47.238zM51.342 188.29h38.656v-20.335H51.342v20.335zm0-25.179h38.656v-20.335H51.342v20.335z" fill="#f4e2ac"/><g class="H"><path d="M28.172 138.997h18.884v78.12H28.172v-78.12zm52.634 3.774h9.186v20.335h-9.186v-20.335zm-29.749 69.73h38.98v-19.954h-38.98v19.954zm38.411-.569H51.626v-18.815h37.842v18.815zm-21.121-13.648h7.627v3.859h-7.627v-3.859z"/><path d="M65.803 202.137h8.201v-3.847h-8.201v3.847zm7.632-.569h-7.063v-2.709h7.063v2.709zm7.371-33.613h9.186v20.335h-9.186v-20.335z"/></g><path d="M214.542 217.026l-25.293-.137-25.287-.051-50.584-.091-50.58.091-25.292.051-25.292.137 25.292.142 25.292.051 50.58.091 50.584-.091 25.287-.051 25.293-.142z" class="B"/><g fill="#efefef"><path d="M151.259 239.427c-44.612 0-80.777-4.105-80.777-9.169s36.165-9.169 80.777-9.169 80.778 4.105 80.778 9.169-36.165 9.169-80.778 9.169z"/><path d="M41.063 235.528c-22.286 0-40.352-2.359-40.352-5.27s18.066-5.27 40.352-5.27 40.352 2.36 40.352 5.27-18.066 5.27-40.352 5.27z"/></g><path d="M212.328 229.854l-93.339.404c-22.686-17.82-25.042-44.216-8.844-60.215 9.795-9.675 22.236-7.723 34.08-9.265h.034c4.126-.535 8.173-1.497 12.014-3.523 12.197-6.437 19.072-21.627 29.334-34.382 1.28-1.599 2.618-3.158 4.018-4.655 8.44-9.01 25.235-9.306 34.017 3.363 22.31 32.179 12.083 80.084-11.314 108.273z" class="H"/><path d="M214.399 156.213c-2.447 38.298-46.669 52.594-74.3 41.121-24.018-9.977-16.158-32.743 4.114-36.556h.046c4.126-.535 8.173-1.497 12.014-3.523 12.197-6.437 19.072-21.627 29.334-34.382 15.275-7.945 30.585 5.299 28.792 33.34z" fill="#71643e"/><path d="M136.82 227.27c1.292-.472 30.483-23.807 31.035-25.4.217-.604-2.936-5.054-6.898-10.325l-2.652-3.488-12.339-15.709-19.572 15.555 12.874 15.276 2.845 3.357s-7.182 13.933-7.598 15.743 1.013 5.464 2.305 4.991z" class="F"/><path d="M136.82 227.27c1.292-.472 30.483-23.807 31.035-25.4.257-.735-4.445-7.154-9.55-13.813l-19.037 15.122 2.845 3.358s-7.182 13.932-7.598 15.742 1.013 5.464 2.305 4.991z" class="C"/><path d="M136.82 227.27c1.292-.472 30.483-23.807 31.035-25.4.217-.604-2.936-5.054-6.898-10.325l-18.861 14.991s-7.182 13.933-7.598 15.743 1.03 5.464 2.322 4.991z" class="D"/><g class="B"><path d="M136.291 225.768c4.798-4.03 24.53-19.84 29.595-23.46.046-.029.063 0 0 .034-4.667 4.098-24.53 19.743-29.538 23.505-.085.08-.142.006-.057-.079zm-.757-6.039c.533-.448 1.153-.781 1.821-.977a5.02 5.02 0 0 1 2.061-.161c1.246.146 2.386.771 3.181 1.741 0 .029-.028.074-.057.046-.942-.834-2.128-1.341-3.382-1.443s-2.508.204-3.573.874c-.01.007-.023.009-.035.006s-.023-.01-.03-.02-.009-.024-.007-.036.011-.023.021-.03zm5.048-11.189c1.941-1.594 4.764-2.715 7.263-2.089.096.029.056.165 0 .182-2.431.471-4.805 1.199-7.081 2.174-.035.024-.079.034-.121.026s-.079-.033-.103-.068a.16.16 0 0 1-.026-.122c.008-.042.033-.079.068-.103zm-1.035 1.775c1.935-1.593 4.757-2.714 7.256-2.088.097.028.057.165 0 .182-2.437.477-4.816 1.214-7.097 2.197-.039.021-.084.026-.126.014s-.078-.041-.099-.08-.026-.084-.014-.126.041-.077.08-.099zm-1.042 1.822c1.935-1.594 4.758-2.715 7.256-2.089.097 0 .063.165 0 .176a35.09 35.09 0 0 0-7.074 2.18c-.035.024-.079.033-.121.025s-.08-.032-.104-.067-.033-.08-.025-.122.032-.079.068-.103zm-1.042 1.798c1.936-1.593 4.758-2.714 7.257-2.088.097 0 .063.159 0 .176-2.429.472-4.801 1.203-7.074 2.18-.036.024-.079.033-.122.025s-.079-.032-.103-.068-.033-.079-.025-.121.032-.08.067-.104zm23.46-15.281c2.203-1.747 4.923 1.673 2.721 3.415s-4.929-1.662-2.721-3.415z"/><path d="M134.293 205.005c.33-1.616 2.226-1.809 3.518-1.445a13.17 13.17 0 0 1 5.782 3.585c.008.007.015.015.02.024s.007.02.007.03-.003.021-.007.031-.012.017-.02.024c.022.043.034.09.034.139s-.011.096-.034.139-.055.08-.094.108-.086.045-.134.052c-2.162.148-4.462.569-6.607.057-1.269-.279-2.783-1.218-2.465-2.744zm5.726 2.243l3.193-.16-3.415-2.02c-.573-.287-1.164-.536-1.77-.746-.945-.307-4.178-.409-2.669 1.879.825 1.269 3.392 1.104 4.661 1.047z"/><path d="M149.04 203.987c-1.497 1.622-3.643 2.544-5.527 3.619-.043.022-.091.032-.14.031s-.096-.014-.138-.037-.079-.057-.106-.098-.043-.086-.048-.135c-.04 0-.08 0-.074-.074.378-2.277 1.349-4.415 2.817-6.197.871-1.025 2.55-1.913 3.728-.757s.364 2.697-.512 3.648zm.29-2.06c0-2.744-2.647-.86-3.261-.086a13.8 13.8 0 0 0-1.053 1.611c-.672 1.138-1.173 2.373-1.708 3.58l2.744-1.645c1.053-.66 3.289-1.952 3.278-3.46z"/></g><path d="M106.622 158c.034 2.926 2.959 8.264 6.966 14.229 7.706 11.491 19.436 25.292 22.333 28.662l.66.762 20.728-15.936-.239-.307-18.252-23.904 54.455-.318-20.677-16.079s-1.679.968-5.162.456c-12.02-1.759-39.117-5.652-45.502-5.396-8.241.353-15.435 8.418-15.31 17.831z" class="E"/><g class="B"><path d="M113.588 172.235c7.706 11.491 19.436 25.292 22.333 28.661l21.149-15.474-18.252-23.904-25.23 10.717z"/><path d="M132.262 152.633c.678.764 1.307 1.57 1.883 2.414l1.941 2.526v.029l-.347-.746-1.212-2.515c-.029-.051.045-.097.074-.046l1.491 2.402.569 1.201.285.671.119.331.848 1.189 1.781 2.715c.035.045-.045.091-.079.045l-1.975-2.43-1.878-2.572-1.776-2.55c-.65-.837-1.249-1.714-1.793-2.624-.005-.009-.006-.02-.004-.03a.04.04 0 0 1 .048-.028c.011.003.019.009.025.018z"/></g><path d="M185.806 122.338c-3.859 4.753-17.871 18.338-26.619 20.33-4.82 1.098-28.115 4.36-31.302 1.451-3.745-3.415-2.009-16.226.967-16.345 9.072-.359 25.862 1.417 30.057.495 1.9-.421 11.951-6.91 22.697-12.094 4.029-1.964 6.801 2.931 4.2 6.163z" class="F"/><path d="M132.427 126.652l.136 1.338c0 .136 0 .284.04.438l.171 1.679v.222l.171 1.673c0 .143.034.291.045.439l.176 1.678v.222l.183 1.708c0 .142.034.29.045.432l.188 1.679c0 .074 0 .148.028.222l.188 1.679.051.433.126 1.053.079.626v.222l.12.922.097.757c0 .148.045.296.068.432l.296 1.708a.83.83 0 0 0 .074.222s.028.034.04.034l.29-.034.808-.086.438-.045.934-.091.74-.074h.227l1.674-.171.438-.046 1.673-.17h.228l1.673-.177.438-.045 1.673-.182h.228l1.673-.183.439-.051 1.673-.193h.228l1.673-.2.438-.051.359-.045 1.314-.165.228-.029 1.673-.222h.108l.33-.045 1.674-.239.227-.034 1.674-.274.438-.079 1.673-.347.228-.057.119-.035a6.96 6.96 0 0 0 1.343-.569l.211-.108.205-.114.233-.131 1.674-1.081c.074-.045.148-.102.227-.159l.433-.308.597-.432.643-.484.439-.336 1.081-.859.279-.222.313-.256.228-.188.301-.245 1.178-.99a2.56 2.56 0 0 0 .194-.165l.319-.268.119-.102 1.673-1.457.137-.12.091-.079.159-.142 1.514-1.361.353-.318.086-.08.398-.359 1.28-1.183.319-.348.308-.284.239-.222 1.138-1.064.438-.416.211-.199.461-.438 1.007-.968.222-.216.501-.49.233-.227.934-.945.432-.433.313-.307.364-.37.063-.068a9.39 9.39 0 0 0 .939-1.11c.08-.102.154-.211.222-.319l.159-.244c.051-.073.097-.149.137-.228.318-.526.572-1.088.757-1.673a4.43 4.43 0 0 0 .131-.439c.144-.545.206-1.109.182-1.673v-.228a3.3 3.3 0 0 0-.62-1.673c-.124-.161-.266-.308-.422-.438-.094-.082-.195-.156-.301-.222-.071-.048-.146-.092-.222-.131a3.87 3.87 0 0 0-1.679-.404h-.455c-.476.023-.948.087-1.412.194l-.267.068a1.39 1.39 0 0 0-.222.057c-.446.121-.885.265-1.315.432l-.364.148-.439.188-.216.103-.899.443-.569.291-.222.119-1.531.82-.148.079-.273.148c-.057.027-.112.058-.165.092l-1.674.916-.227.125-.968.569-.706.399-.073.039-.365.205-1.673.951-.228.131-.677.387-.398.227-.569.342-.439.256-1.673.956-.205.12-.74.426-.933.524-.438.25-1.628.9h-.046l-.227.119-.16.086-1.514.779-.438.205c-.539.267-1.098.49-1.673.666h-.085l-.143.034a2.13 2.13 0 0 1-.239.04 13.72 13.72 0 0 1-1.434.029h-.438c-.49 0-1.053 0-1.673-.052h-.228l-.677-.028-.996-.046h-.439l-1.673-.091h-.228l-1.673-.096h-.438l-1.673-.103h-.228l-1.673-.102-.438-.029-1.674-.108h-.227l-1.674-.114-.438-.028-1.673-.114h-.228l-1.673-.114-.438-.034-1.674-.12h-.227l-1.656-.239z" class="D"/><path opacity=".2" d="M186.187 115.611v7.268c.08-.102.154-.211.222-.319v-6.829c-.071-.045-.145-.085-.222-.12zm-3.79-.136v11.342l-.222.217v-11.503a1.49 1.49 0 0 1 .216-.056h.006zm2.111-.268v9.527l-.432.433v-9.96h.432zm-4.012.905v12.521l-.438.415V116.3l.438-.188zm-2.112 1.024v13.5l-.222.205v-13.585l.222-.12zm-4.012 2.175v14.962l-.091.08-.137.119v-15.036l.228-.125zm1.838-1.008l.274-.148v14.297h-.086l-.353.319v-14.377c.053-.034.109-.064.165-.091zm-3.813 2.112l.074-.04v15.554l-.119.103-.319.267V120.62l.364-.205zm-2.037 1.138v16.129l-.228.188v-16.169l.228-.148zm-4.218 2.419l.205-.12v16.915l-.227.159v-16.937l.022-.017zm2.317-1.304v16.568l-.439.336v-16.659l.439-.245zm-4.013 2.277v17.205h-.233l-.205.114V125.19l.438-.245zm-2.111 1.172v16.858l-.228.057v-16.789l.228-.126zm-4.098 1.879h.085v15.73l-.227.035v-15.76l.142-.005zm2.197-.894v16.277l-.438.08v-16.146l.438-.211zm-3.984.996v15.936h-.33-.108v-15.942l.438.006zm-2.112-.063v16.261l-.227.028V128.03l.227.005zm-3.984-.199v16.943h-.227V127.83l.227.006zm2.112.114v16.579l-.438.051v-16.647l.438.017zm-3.984-.222v17.268l-.438.051v-17.336l.438.017zm-2.112-.125v17.643h-.227v-17.643h.227zm-4.012-.256v18.315h-.228v-18.327l.228.012zm2.112.136v17.951l-.439.045v-18.018l.439.022zm-4.013-.267v18.633l-.438.046v-18.673l.438-.006zm-2.111-.142v18.992h-.228v-19.004l.228.012zm-4.013-.285v16.505l-.119-.922v-.222c0-.205-.052-.415-.08-.626v-14.746l.199.011zm2.112.154v19.31l-.439.046v-19.385l.439.029zm.933 19.219l-.933.091-.439.046-.808.085h-.33c-.035-.07-.06-.144-.074-.222h2.584zm18.782-2.111h-.109l-1.673.222-.227.028-1.315.165h-18.423c0-.136-.04-.284-.068-.432l21.815.017zm8.121-1.901l-.205.114-.21.108h-29.738v-.222h30.153zm5.606-4.012l-.279.222h-35.855c0-.074 0-.148-.029-.222h36.163zm-2.441 1.9l-.598.433h-32.885l-.051-.433h33.534zm4.974-3.983l-.319.267a2.54 2.54 0 0 1-.193.165h-38.463c0-.142-.028-.29-.045-.432h39.02zm2.18-1.901l-.16.142-.091.08H133.28v-.222h41.32zm4.399-4.013l-.239.222h-45.895v-.222h46.134zm-2.049 1.895l-.398.359v.08h-43.471c0-.148-.028-.296-.045-.439h43.914zm-23.477-4.012l.678.028h.227l1.673.052h.439a13.72 13.72 0 0 0 1.434-.029c.08-.008.16-.022.239-.04v-.034h23.005l-.461.438h-48.104c0-.153-.028-.301-.04-.438l20.91.023zm8.702-1.759l.228-.119h20.728l-.233.228h-20.95l.227-.109zm7.28-4.166h17.25a1.88 1.88 0 0 1-.136.228h-17.513l.399-.228zm-3.335 1.913h19.117l-.063.068-.364.37h-19.442l.752-.438zm6.351-3.62l.706-.399h14.416c-.036.149-.079.295-.131.439h-15.065l.074-.04zm4.013-2.22l.148-.079h11.12v.227h-11.564l.296-.148zm3.574-1.855l.438-.188.364-.148h5.851a2.77 2.77 0 0 1 .421.438h-7.291l.217-.102z" class="C"/><path d="M170.661 137.466c5.424-4.485 11.639-10.483 14.525-13.397 3.984-4.013 3.568-10.023-2.522-8.657-1.656 2.743-8.878 16.209-12.003 22.054zm-34.484-9.061c0-.051.074-.068.086 0 .261 1.321.37 2.675.517 4.013l.416 4.149.626 8.304c-.005.019-.016.036-.032.049s-.036.019-.056.019-.04-.007-.056-.019a.09.09 0 0 1-.032-.049l-.894-8.224-.347-4.076-.228-4.166z" class="B"/><path d="M169.227 157.75a2.78 2.78 0 0 0 .905.29l.228.046.569.119 1.081.194.177.028.261.04 1.674.268.227.028 1.674.251.438.062 1.673.233.228.029 1.673.228.438.056 1.673.217.228.028.677.086.996.13h.194c.08 0 .165 0 .245.035l1.673.205.227.028 1.418.171.256.028.438.057 1.673.205.228.028 1.673.194.438.051 1.674.194.227.028 1.674.194c.148 0 .296.028.438.051l1.673.182.228.028h.284l1.389.148.438.052 1.674.17.227.029h.08l1.593.148.439.04.478.034a1.79 1.79 0 0 0 .387 0c.032-.069.044-.146.034-.222l-.08-1.673c0-.137 0-.285-.034-.439l-.171-1.679v-.222l-.187-1.679-.052-.432-.205-1.707v-.222l-.119-.905-.103-.774c0-.143-.039-.285-.056-.433l-.234-1.679-.034-.222c.003-.032.003-.064 0-.097l-.228-1.582c0-.142-.039-.284-.062-.432l-.256-1.679-.034-.222-.262-1.708c0-.142-.052-.284-.074-.432l-.273-1.679c0-.074 0-.148-.035-.222l-.296-1.679c0-.142-.045-.29-.074-.433l-.079-.455-.222-1.224v-.039l-.034-.183-.319-1.679c0-.142-.051-.29-.085-.432l-.325-1.707-.051-.222-.347-1.679-.091-.439-.382-1.673c0-.062 0-.119-.039-.182s0-.028 0-.04l-.399-1.679-.034-.131c0-.102-.051-.205-.08-.307l-.432-1.673c0-.074-.04-.154-.063-.228l-.472-1.673-.137-.438-.489-1.514c0-.052-.034-.109-.057-.16s-.051-.153-.08-.227l-.091-.251-.302-.802-.25-.621-.193-.438c-.256-.584-.563-1.143-.917-1.673l-.153-.211-.285-.336-.159-.159-.302-.273-1.081-.905a.98.98 0 0 0-.131-.102l-.228-.177-.216-.159-1.457-.985-.53-.154-.091-.056c-.243-.147-.503-.265-.774-.353-.265-.088-.534-.16-.808-.217h-.062l-.165-.034a15.98 15.98 0 0 0-1.674-.21h-.438c-.569 0-1.138-.04-1.673 0h-.228c-.62 0-1.195.051-1.673.102l-.438.051c-.264.028-.524.075-.78.143l-.097.034a1.24 1.24 0 0 0-.307.193 4.56 4.56 0 0 0-.49.473l-.227.256-.723.945-.307.438-.644 1.013-.392.66-.046.074-.085.154-.865 1.673-.211.438-.512 1.213-.176.461-.052.136-.034.091c-.19.53-.353 1.07-.489 1.617-.003.018-.003.038 0 .056l-.114.439-.427 1.673c0 .074-.04.148-.063.228l-.438 1.673c0 .125-.062.256-.097.387-.002.017-.002.034 0 .051l-.426 1.605v.074c0 .074-.04.148-.057.222l-.444 1.673-.114.438-.438 1.679c0 .074-.04.148-.063.222l-.438 1.708-.103.393v.039l-.216.814-.222.865c0 .074-.04.148-.062.222l-.433 1.679-.114.433-.438 1.679c0 .074-.04.148-.057.222l-.347 1.331-.086.348-.113.432-.239.928-.194.751c0 .074-.034.148-.057.222l-.421 1.679-.114.433-.415 1.679c0 .074-.04.148-.057.222l-.41 1.678-.102.422-.126.569-.267 1.138-.051.222-.365 1.707-.085.433c-.113.351-.169.718-.165 1.087z" class="D"/><path opacity=".2" d="M202.231 138.325v23.859l.228.028v-22.623l-.222-1.224s-.006-.028-.006-.04zm1.913 11.855l.034.222.233 1.679c0 .148.04.291.057.433l.12.774v9.106l-.439-.04v-12.27a.62.62 0 0 1-.005.096zm-3.984-21.741l.398 1.679v31.872l-.438-.051v-33.63l.04.13zm-1.833-6.34c0 .074.057.148.08.228s.04.108.057.159v39.311l-.228-.029v-39.931c.017.08.045.166.091.262zm-3.876-5.788v45.03l-.227-.028v-45.19l.227.188zm1.958 1.776c.051.062.102.136.154.21v43.289c-.143 0-.291-.034-.439-.051V117.74a4.32 4.32 0 0 1 .268.335l.017.012zm-3.859-3.096v46.128l-.438-.051V114.7l.438.291zm-2.174-.917h.063v46.801l-.228-.029v-46.817l.165.045zm-3.95-.296v46.607l-.227-.028v-46.59l.227.011zm2.112.052v46.8l-.438-.057v-46.777l.438.034zm-3.984.051v46.271c-.08 0-.165 0-.245-.034h-.193v-46.197l.438-.04zm-2.112.893v45.105l-.227-.029v-44.831l.227-.245zm-4.234 7.325l.176-.461v37.711l-.227-.028v-37.222h.051zm1.895-3.984l.393-.66v42.207l-.438-.057v-41.456l.045-.034zm-3.631 10.364c-.003-.017-.003-.034 0-.051v30.665l-.438-.062v-28.964l.438-1.628v.04zm-2.111 8.025c-.001-.013-.001-.026 0-.04v22.339l-.228-.029v-21.456l.228-.854v.04zm-4.104 16.05l.103-.421v5.993l-.228-.046v-4.974l.125-.592v.04zm2.015-8.025l.114-.433.085-.347v14.718l-.262-.04-.176-.028v-12.965l.239-.905zm33.198 17.689c.009.075-.002.152-.034.222h-.848v-.034l-.439-.04-1.593-.148h2.914zm-.114-2.112c0 .154 0 .302.034.438h-17.564l-1.417-.17-.227-.029-1.674-.205c-.079 0-.165 0-.244-.034h21.092zm-.194-1.901v.222h-32.975l-.177-.028-1.081-.194h34.233zm-35.286-4.012h34.814v.222h-34.877l.063-.222zm-.416 1.901h35.463l.052.432h-35.611l.085-.432h.011zm.911-3.984h34.04c0 .148.04.29.057.432h-34.211l.114-.432zm.472-1.912h33.301l.034.222h-33.403l.057-.24.011.018zm1.008-3.984h31.701l.034.222h-31.804l.057-.268.012.046zm-.478 1.901h32.469c0 .147.04.29.063.432h-32.658l.114-.478.012.046zm1.024-4.013h30.819c0 .148.051.29.074.433h-31.018l.114-.478.011.045zm.49-1.901h29.993c0 .074 0 .148.034.222H172.79c.045-.119.068-.193.085-.267l.012.045zm1.047-4.012h28.263l.034.182v.04h-28.377c0-.12.046-.194.068-.268l.012.046zm-.495 1.901h29.1c0 .142.051.29.074.432h-29.328l.142-.478.012.046zm.944-3.62l.103-.393h27.318l.086.433h-27.518a.41.41 0 0 1 0-.086l.011.046zm.604-2.277h26.43l.052.222h-26.556c.022-.136.04-.21.079-.284l-.005.062zm1.053-4.012h24.529v.04c0 .062 0 .119.04.182h-24.626c.005-.137.028-.211.045-.285l.012.063zm-.501 1.895h25.44c0 .148.057.29.091.438h-25.656l.113-.5.012.062zm.956-3.625l.097-.387h23.442c0 .102.057.205.08.307l.034.131h-23.676c-.01-.038-.006-.078.012-.114l.011.063zm.569-2.277h22.481c0 .074.045.154.063.228h-22.59l.063-.319-.017.091zm1.076-3.876v-.199h20.187c0 .074.057.148.08.228h-20.284l.017-.029zm-.535 1.765h21.331l.137.438h-21.565l.114-.512-.017.074zm1.485-3.984h18.383l.194.438h-18.782l.222-.541-.017.103zm.951-1.827l.045-.074h16.306l.154.21h-16.585l.08-.136zm3.136-4.052l.096-.035h7.149c.273.057.543.129.808.217h-8.344c.086-.112.19-.208.308-.285l-.017.103zm-1.748 1.866h12.521l.217.16.227.176c.047.031.09.065.131.103h-13.386c.114-.256.205-.399.307-.541l-.017.102z" class="C"/><path d="M183.074 159.953l15.657 1.861-.814-40.779c-.637-1.639-1.303-2.846-1.969-3.455l-.302-.273-12.572 42.646zm-7.399-5.68l.826-3.791 1.707-7.575 3.728-15.213 2.225-8.497c.003-.009.009-.017.017-.022s.017-.008.026-.008.018.003.026.008.013.013.017.022c-1.315 5.031-2.459 10.108-3.637 15.173l-3.461 15.139-.939 4.251c-.313 1.435-.569 2.914-.979 4.314-.045.16-.324.126-.301-.045.148-1.212.478-2.504.745-3.756z" class="B"/><path d="M184.19 120.5c2.105.29 5.35-3.199 6.505-5.885.08-.182-.364-2.003-.803-4.24l-.648-4.28c0-.29-.957.33-.957.33l-1.77.615-5.867 2.026a22.44 22.44 0 0 1 1.36 5.304c.019.19.019.38 0 .57v.096c-.08 1.127.142 5.179 2.18 5.464z" class="F"/><path d="M182.004 114.957v.096c.302.012.605-.002.905-.039 5.913-.695 5.942-8.281 5.942-8.281l-2.334.324-5.867 2.026c.668 1.706 1.125 3.487 1.36 5.305a2.85 2.85 0 0 1-.006.569z" class="B"/><path d="M188.174 94.929c1.576 2.846 1.809 12.071.045 14.501-2.567 3.529-7.683 4.884-10.916 1.594-3.13-3.193-3.221-15.19-1.138-17.495 3.011-3.398 9.675-2.846 12.009 1.4z" class="F"/><g class="B"><path d="M180.541 102.555s.052.029.052.051c0 .621.102 1.332.671 1.52v.034c-.694-.074-.819-1.019-.723-1.605z"/><path d="M181.076 101.889c.996-.102 1.139 1.89.211 1.992s-1.041-1.901-.211-1.992zm-4.103 1.013s-.051.034-.046.063c.063.615 0 1.332-.517 1.576v.035c.688-.12.717-1.099.563-1.674z"/><path d="M176.375 102.299c-1.001 0-.939 1.992 0 1.998s.837-1.992 0-1.998zm5.447-1.377a7.77 7.77 0 0 1-.791-.216 1.32 1.32 0 0 1-.763-.376c-.053-.078-.078-.17-.073-.264s.041-.183.102-.254a1.05 1.05 0 0 1 .499-.233c.184-.032.373-.014.548.051a1.54 1.54 0 0 1 .933.603c.048.074.074.16.074.247a.46.46 0 0 1-.075.247c-.048.073-.117.131-.198.165a.45.45 0 0 1-.256.03zm-6.289.427c.273-.069.512-.171.78-.262a1.34 1.34 0 0 0 .74-.421c.048-.08.069-.173.059-.266a.42.42 0 0 0-.116-.247c-.15-.112-.327-.182-.513-.204s-.374.005-.546.079c-.37.1-.69.333-.899.655a.45.45 0 0 0-.056.251.44.44 0 0 0 .089.241c.052.071.123.125.205.155a.46.46 0 0 0 .257.019zm5.202 5.099c-.14.255-.33.479-.56.658a2.12 2.12 0 0 1-.777.378c-.247.065-.502.094-.757.085a.61.61 0 0 1-.148 0h-.137a.15.15 0 0 1-.087-.043c-.024-.024-.039-.055-.044-.088-.003-.021-.003-.042 0-.062v-.074c-.045-.478-.045-1.201-.045-1.201-.171.097-1.031.569-1.031.307a31.75 31.75 0 0 1 .37-6.431c0-.015.006-.029.017-.04s.025-.017.04-.017.03.006.041.017.016.025.016.04c.103 1.986-.153 3.984-.085 5.976.305-.171.633-.297.973-.376.068 0 0 1.406 0 1.622a2.95 2.95 0 0 0 1.149-.199 2.94 2.94 0 0 0 .98-.632c.068-.011.119.029.085.08zm-5.014-9.806c3.17 1.804 7.006-1.645 7.006-1.645.31.632.816 1.148 1.442 1.47s1.341.433 2.035.317c0 0 1.013 5.02 2.351 4.9 2.037-.182 2.089-7.154 1.332-8.457s-2.516-1.508-2.516-1.508c-.259-.807-.814-1.486-1.554-1.901-1.479-.95-6.158.888-6.158.888a4.5 4.5 0 0 0-1.371-1.559 1.27 1.27 0 0 0-.461-.211c-.166-.039-.339-.043-.507-.014a1.24 1.24 0 0 0-.471.187c-.143.094-.265.215-.36.357a2.98 2.98 0 0 1 .569 1.212c.365 1.463-.848 1.56-.95.216a2.14 2.14 0 0 1 .358-1.428c-.671-.831-1.673-1.036-2.225-.512-.984.945-1.155 6.192 1.48 7.689z"/></g><path d="M187.792 102.544s1.469-3.256 2.909-2.783.711 4.923-.712 5.782a1.58 1.58 0 0 1-.583.253c-.209.044-.426.046-.636.004s-.409-.125-.586-.245a1.59 1.59 0 0 1-.443-.456l.051-2.555z" class="F"/><path d="M190.462 101.041s.034.029 0 .04c-.996.638-1.372 1.742-1.577 2.846a.88.88 0 0 1 .198-.32c.089-.091.196-.162.315-.207s.245-.065.372-.056a.86.86 0 0 1 .361.105c.029 0 0 .062 0 .062a.99.99 0 0 0-.996.535 4.96 4.96 0 0 0-.341.945c-.034.108-.216.091-.199-.028-.285-1.4.421-3.518 1.867-3.922z" class="B"/><path d="M182.004 115.053l1.912 4.77 6.608-6.352 1.759 2.146s-6.579 10.21-6.608 9.743l-1.998-4.518-3.164 3.01.472-7.774 1.019-1.025z" class="D"/><path d="M180.53 119.988l.387-3.853c.003-.009.009-.017.017-.022s.016-.008.026-.008.018.003.026.008.013.013.016.022c.222 1.246-.267 6.141-.296 7.319l2.96-2.607c.438.723 1.907 3.984 2.009 4.309 1.042-1.623 5.447-8.008 6.665-9.534.007-.006.016-.01.026-.011s.019.002.027.007.015.013.019.022.004.019.002.028c-.928 1.707-6.619 10.148-6.699 10.125-.78-1.554-1.477-3.148-2.089-4.775-.478.569-3.312 3.415-3.318 3.204-.001-1.414.074-2.828.222-4.234z" class="B"/><path d="M155.977 149.554h-23.112l-4.365-32.708h23.107l4.37 32.708z" fill="#a6a6a6"/><path d="M154.839 149.554h-23.107l-4.371-32.708h23.113l4.365 32.708z" fill="#79797e"/><path d="M138.852 131.581a2.51 2.51 0 0 0 .797 1.589c.451.414 1.038.648 1.65.659.288.005.574-.051.838-.165s.501-.283.695-.496.34-.464.429-.738a2.02 2.02 0 0 0 .087-.849c-.054-.614-.334-1.186-.784-1.606s-1.041-.659-1.657-.67c-.291-.006-.579.051-.846.167a2.02 2.02 0 0 0-.7.503c-.195.216-.341.471-.429.748a2.03 2.03 0 0 0-.08.858z" class="C"/><g class="F"><path d="M197.559 124.159c1.087 15.225-1.594 25.708-4.275 26.83-7.228 3.027-29.202 4.712-34.239 4.177-1.969-.205-.671-16.533 1.446-16.505 5.247.142 24.473.302 24.723.188 1.634-.768 1.707-5.845 5.487-16.693 3.044-8.753 6.414-4.223 6.858 2.003z"/><path d="M143.69 135.429a2.36 2.36 0 0 0-.421 1.346c0 .481.147.95.421 1.346-.763.291-1.4.841-1.799 1.553-.643 1.292 1.093 2.846 1.093 2.846-.727.471-1.296 1.149-1.633 1.946-.496 1.298 1.035 3.136 1.035 3.136-.429.8-.558 1.726-.364 2.613.393 1.514 4.166 3.443 6.414 4.16s9.289.655 10.638.774l4.729-14.376s-9.152-6.084-11.912-6.557c-2.356-.375-7.114-.256-8.201 1.213z"/></g><path d="M143.838 137.921c2.572-.176 5.054.421 7.569.882.057 0 .04.097 0 .086-2.492-.484-5.054-.467-7.563-.848-.013-.003-.025-.011-.033-.021s-.014-.023-.014-.037.003-.026.01-.038.018-.019.031-.024zm-.774 4.445c.579.019 1.153.113 1.707.279l1.816.456 3.585 1.064c.007-.003.015-.004.022-.003s.014.004.02.008.011.01.014.016.006.014.006.022-.002.014-.006.021-.008.012-.014.016-.013.007-.02.008-.015 0-.022-.003l-3.619-.893-1.827-.387c-.584-.083-1.157-.23-1.708-.439-.022-.006-.04-.02-.051-.04s-.015-.043-.009-.065.021-.04.041-.052.043-.014.065-.008zm-.655 5.265c.532.022 1.056.135 1.548.336l1.639.466 3.296.877c.057 0 .04.102 0 .085l-3.37-.791-1.656-.415c-.512-.08-1.006-.252-1.457-.507 0 0-.028-.051 0-.051z" class="B"/><path d="M162.551 137.887v18.326l1.457-.074h.438.49l1.184-.062h.227l1.673-.108h.439l1.673-.114h.228l1.673-.131.438-.034 1.673-.143h.228l1.673-.153.439-.046 1.673-.176h.227l1.674-.188.438-.051 1.673-.216.222-.177.814-.114.859-.125.439-.068.159-.029 1.514-.256.228-.04 1.673-.324.438-.097 1.673-.404.228-.063 1.588-.495.085-.028.438-.171.518-.233a4.95 4.95 0 0 0 1.139-.712l.057-.051.17-.176c.214-.227.405-.475.569-.74.046-.068.086-.142.131-.222.305-.537.564-1.099.774-1.679l.154-.433.051-.159.439-1.463v-.057l.051-.222.392-1.707c0-.142.057-.285.08-.433l.302-1.678c0-.074.028-.148.04-.222l.239-1.679c0-.143.04-.291.057-.433l.193-1.679v-.222l.154-1.679.034-.432.091-1.298v-.381-.222l.08-1.679v-.438l.045-1.674v-.222-1.679-.438l-.034-1.673v-.228l-.074-1.673v-.438c0-.273-.04-.53-.063-.78l-.096-.894v-.227l-.177-1.053-.148-.62-.131-.439a6.64 6.64 0 0 0-.779-1.673l-.171-.228-.142-.17c-.131-.155-.278-.294-.439-.416a2.15 2.15 0 0 0-1.673-.489l-.228.045c-.638.183-1.213.54-1.661 1.03l-.205.217-.234.273a9.44 9.44 0 0 0-.933 1.4l-.239.438-.501 1.082-.228.569-.085.227-.484 1.435c0 .079-.051.159-.074.239l-.136.438-.507 1.673-.068.228-.307 1.018-.2.655-.131.438-.108.342-.409 1.337c0 .074-.052.148-.074.222l-.518 1.673-.137.439-.535 1.644v.035c0 .034-.045.148-.074.222l-.142.421-.438 1.258-.166.432c-.201.581-.455 1.143-.756 1.679-.051.08-.111.154-.177.222-.038.035-.085.057-.136.063h-.439l-1.673-.035h-.228-.74-.933-.438l-1.673-.039h-.228l-1.673-.04h-.439l-1.673-.04h-.227l-1.674-.04h-.438l-1.673-.045h-.228l-1.673-.046h-.438l-1.674-.04h-.227l-1.674-.045h-.438l-1.417-.12z" class="D"/><path opacity=".2" d="M198.219 123.238v11.496-.381-.222l.08-1.679v-.438l.045-1.674v-.222-1.679-.438l-.034-1.673v-.228l-.074-1.673v-.438c.028-.273.006-.529-.017-.751zm-3.785-6.261v34.148l-.171.177-.057.051v-34.308l.228-.068zm2.112.905v28.542l-.439 1.463v-30.398c.161.122.308.261.439.416v-.023zm-4.218.398l.205-.216v34.228l-.438.171v-33.887c.074-.096.154-.187.233-.273v-.023zm-1.906 3.193v31.513l-.228.063v-30.99l.228-.563v-.023zm-4.098 12.857l.074-.222c.023-.074 0 0 0-.034v19.8l-.228.04v-19.14l.154-.444zm1.867-5.913l.131-.439.199-.654v26.129l-.438.097v-25.111l.108-.022zm-3.683 9.988v15.794l-.438.068v-15.845l.438-.017zm-2.111-.063v16.198l-.228.034v-16.209l.228-.023zm-3.984-.074v16.727h-.228v-16.709l.228-.018zm2.111.052v16.436l-.438.052v-16.505l.438.017zm-3.984-.097v16.972l-.438.045v-17.006l.438-.011zm-2.111-.051v17.222h-.228v-17.205l.228-.017zm-3.984-.103v17.644h-.228v-17.627l.228-.017zm1.895.051h.216v17.439l-.438.034v-17.455l.222-.018zm-3.796-.102v17.837h-.438v-17.82l.438-.017zm-2.111-.051v18.024h-.228v-18.007l.228-.017zm-1.901-.051v18.178h-.439v-18.213l.439.035zm20.136 16.277l-.16.028-.438.069-.859.125h-20.66v-.222h22.117zm-19.732 1.901h-.49-.438l-1.457.074v-.12l2.385.046zm28.115-4.013l-.518.234-.438.171-.085.028h-29.459v-.433h30.5zm2.077-1.9l-.13.221h-32.441v-.221h32.571zm1.486-3.984l-.051.222h-34.012v-.222h34.063zm-.569 1.9l-.154.433H162.54v-.433h33.505zm1.03-4.012c0 .148-.051.29-.08.433H162.54v-.433h34.535zm.341-1.901c0 .074 0 .148-.039.222H162.54v-.222h34.876zm.513-4.012v.222h-13.261c.066-.068.125-.142.176-.222h13.085zm-25.469 0l1.673.04h.228l1.673.039h.438l1.673.04h.262l1.673.04h.439.933-18.878v-.222l9.886.063zm25.252 1.901c0 .142-.034.29-.057.432H162.54v-.432h35.172zm-11.98-3.984h12.396l-.034.432h-12.521l.159-.432zm.643-1.958h11.884v.222h-11.918c.034-.074.034-.148.034-.222zm1.275-4.013h10.757v.222h-10.814l.08-.222h-.023zm-.569 1.896h11.28v.438h-11.383c.006-.142.052-.29.103-.438zm1.241-4.013h10.102v.438h-10.245l.143-.438zm.569-1.901h9.493v.228h-9.562l.069-.228zm1.286-3.984h7.911v.228h-8.025l.114-.228zm-.643 1.901h8.747v.439h-8.907c.08-.177.12-.319.166-.467l-.006.028zm1.622-3.984h6.482l.131.439h-6.829l.216-.439zm1.377-1.918h4.155l.171.228h-4.553c.091-.12.159-.188.227-.228z" class="C"/><path d="M162.431 137.893c-.014-.029-.021-.061-.02-.094a.18.18 0 0 1 .028-.091.2.2 0 0 1 .07-.066.19.19 0 0 1 .093-.022l8.657.193 8.656.228 4.77.153c.028-.045.899-2.754 1.087-3.318l1.138-3.289.336-.951.097-.643.102-.888a16.4 16.4 0 0 1 .29-1.747c.005-.01.014-.017.024-.021s.021-.005.031-.001.019.01.025.019.008.021.006.032c-.118.6-.179 1.209-.182 1.821l-.035.438 1.19-3.312c-.003-.007-.003-.015-.003-.022s.004-.014.008-.02.01-.011.017-.015.013-.005.021-.005a.05.05 0 0 1 .021.005c.007.003.012.009.016.015s.007.013.008.02 0 .015-.003.022l-1.571 5.349-1.07 3.313-1.28 3.54c-.034.063-2.96-.103-4.399-.125l-4.332-.08-8.656-.216-4.809-.131c0 .188-.143 1.138-.131 1.201s-.091.074-.086 0-.119-1.275-.114-1.292zm3.358 1.457c0-.046.08-.063.092 0 .182 1.269.21 2.567.284 3.847l.177 3.984.142 7.968c0 .023-.009.044-.025.06s-.038.026-.061.026-.044-.009-.06-.026-.025-.037-.025-.06l-.421-7.882-.114-3.905.011-4.012zm-3.38 9.396v-.569-.279c-.013-.04-.013-.084 0-.125v-.159h.045v.159.04l.262 4.115.074 4.149 4.724-.194 4.883-.33 9.761-1.03 2.703-.381 2.772-.416c.057 0 .08.08 0 .091-.825.103-1.645.33-2.464.478l-2.414.41-4.843.683-9.732.848-2.795.12-2.76.04c-.039-.003-.076-.019-.104-.046s-.046-.064-.05-.102l-.091-4.32v-2.117l.029-1.065z" class="B"/><path d="M128.619 126.26c-1.451 1.867-4.809 3.904-5.39 5.56-.157.404-.179.848-.065 1.267s.361.788.703 1.055c0 0-1.89.473-2.169 2.061-.142.819 1.042 1.77 1.042 1.77-.421.13-.799.373-1.091.703a2.4 2.4 0 0 0-.565 1.169c-.126 1.138 1.075 1.918 1.075 1.918s-1.235 1.093-.99 2.277c.49 2.436 10.097 4.553 12.362 1.343 1.058-1.497-1.315-1.884-1.315-1.884s3.546-.268 4.035-2.237-2.629-2.276-2.629-2.276 3.443-.285 3.739-2.379-2.846-1.97-2.846-1.97 2.453-.973 2.317-2.629c-.228-2.732-5.589-.404-7.593-1.372l-.62-4.376z" class="F"/><path d="M122.689 137.978c-.035 0-.057.051 0 .069a15.98 15.98 0 0 0 11.047 1.058c.125-.034.204-.199.051-.165-2.55.546-8.059-.011-11.098-.962zm12.06-3.494c-3.614.922-7.166.569-10.763-.274-.045 0-.057.052 0 .074 1.639.905 3.984 1.213 5.84 1.304 1.715.116 3.43-.222 4.974-.979.045-.029.028-.142-.051-.125z" class="B"/><path d="M61.137 200.828c.478 1.286 23.904 30.409 25.497 30.955.603.211 5.043-2.953 10.301-6.932l3.483-2.663 15.663-12.39-15.611-19.527-15.236 12.93-3.347 2.846s-13.955-7.137-15.771-7.547-5.458 1.036-4.98 2.328z" class="F"/><path d="M61.137 200.828c.478 1.286 23.904 30.409 25.497 30.955.74.251 7.137-4.473 13.784-9.595l-15.184-18.987-3.347 2.846s-13.955-7.137-15.771-7.547-5.458 1.036-4.98 2.328z" class="C"/><path d="M61.136 200.828c.478 1.286 23.904 30.409 25.497 30.955.603.211 5.043-2.953 10.301-6.932l-15.048-18.815s-13.955-7.137-15.771-7.547-5.458 1.047-4.98 2.339z" class="D"/><g class="B"><path d="M62.633 200.305c4.052 4.786 19.92 24.472 23.557 29.504 0 .039 0 .062-.028 0-4.115-4.65-19.829-24.473-23.608-29.459-.08-.085-.006-.142.08-.045zm6.039-.803a5.02 5.02 0 0 1 1.138 3.876 4.88 4.88 0 0 1-1.707 3.187c-.028 0-.074-.029-.046-.057a5.82 5.82 0 0 0 .569-6.961c.003-.024.007-.029.011-.034.022-.012.028-.012.034-.011zm11.206 5.031c1.599 1.93 2.732 4.752 2.111 7.251 0 .097-.165.063-.182 0-.477-2.428-1.214-4.798-2.197-7.069-.024-.035-.033-.079-.025-.121s.032-.079.068-.104.079-.033.121-.025.079.033.104.068zm-1.804-1.047c1.599 1.929 2.732 4.752 2.112 7.251 0 .096-.159.062-.176 0a34.61 34.61 0 0 0-2.203-7.069c-.024-.036-.033-.079-.025-.121a.16.16 0 0 1 .068-.104c.035-.024.079-.033.121-.025a.16.16 0 0 1 .104.068zm-1.798-1.025c1.599 1.93 2.732 4.753 2.112 7.251-.028.097-.165.063-.182 0-.477-2.428-1.214-4.798-2.197-7.069a.16.16 0 0 1 .043-.224c.035-.024.079-.034.121-.026s.079.033.104.068zm-1.805-1.035c1.599 1.935 2.732 4.752 2.111 7.251 0 .096-.159.062-.176 0a34.72 34.72 0 0 0-2.203-7.069c-.024-.036-.033-.079-.025-.121a.16.16 0 0 1 .068-.104c.035-.024.079-.033.121-.025a.16.16 0 0 1 .104.068zm15.356 23.408c1.759 2.197-1.656 4.935-3.415 2.732s1.656-4.929 3.415-2.732z"/><path d="M83.361 198.227c1.616.33 1.816 2.22 1.457 3.512-.659 2.211-1.89 4.21-3.568 5.793-.006.009-.013.015-.022.02s-.019.007-.029.007-.02-.002-.029-.007-.017-.011-.022-.02c-.043.023-.091.034-.14.034s-.097-.011-.14-.034a.3.3 0 0 1-.109-.094c-.029-.039-.047-.085-.054-.133-.154-2.163-.569-4.457-.08-6.608.33-1.263 1.241-2.783 2.738-2.47zm-2.22 5.737l.165 3.193 2.009-3.415a14.19 14.19 0 0 0 .74-1.77c.307-.945.398-4.177-1.884-2.664-1.229.82-1.087 3.387-1.002 4.656h-.028z"/><path d="M84.46 212.973c-1.628-1.491-2.555-3.636-3.642-5.515-.021-.043-.032-.091-.031-.14a.3.3 0 0 1 .038-.138c.023-.042.057-.079.097-.105a.3.3 0 0 1 .135-.049c-.001-.011 0-.021.004-.031s.01-.019.017-.026.017-.012.027-.015.021-.004.031-.002c2.28.367 4.422 1.331 6.209 2.794 1.024.865 1.918 2.544.768 3.723s-2.703.375-3.654-.496zm2.06.285c2.743-.028.854-2.652.068-3.261a13.77 13.77 0 0 0-1.611-1.053c-1.138-.666-2.379-1.138-3.585-1.707l1.656 2.731c.66 1.087 1.963 3.301 3.472 3.29z"/></g><path d="M86.048 200.253l16.248 21.923 54.831-38.041 5.287-3.671 3.751 2.277c3.13 1.707 7.718 3.921 11.775 4.519 6.83 1.007 18.173.899 23.904-6.773 4.832-6.46 1.531-18.161 1.531-18.161l-7.968-.882s-16.505-13.79-27.99-14.229c-4.866-.193-11.952 3.495-18.514 7.348s-62.855 45.69-62.855 45.69z" class="E"/><path d="M162.414 180.459l3.751 2.276c3.984-4.769 12.419-13.432 12.675-13.739l-16.426 11.463zm27.689-23.028l3.125 2.277 3.056 2.248 2.845 2.59 1.332 1.297a12.64 12.64 0 0 1 1.275 1.383c.034.046-.034.103-.08.074a16.11 16.11 0 0 1-1.417-1.138l-1.474-1.258-2.845-2.407-2.749-2.499-3.091-2.515c-.017-.035 0-.069.023-.052zM89.861 199.468l3.016 3.563 2.942 3.637 5.828 7.313 3.067 4.12c.011.014.016.031.014.048s-.011.033-.025.044-.031.015-.048.013-.033-.011-.043-.025l-5.959-7.194-5.799-7.347-3.09-4.104c-.004-.012-.003-.026.001-.038a.06.06 0 0 1 .059-.042.06.06 0 0 1 .036.012zm43.539-34.234c1.929-2.237 10.204-8.104 15.492-10.728.01-.003.021-.002.03.002s.017.012.022.022.006.02.004.03-.008.019-.016.026c-5.271 3.386-13.956 9.806-15.453 10.762-.068.04-.13-.057-.079-.114z" class="B"/><path d="M156.268 104.991l-1.463 2.959-3.261.473 2.362 2.305-.558 3.25 2.92-1.537 2.914 1.537-.552-3.25 2.362-2.305-3.267-.473-1.457-2.959zm-10.837-9.482l-1.053 2.22-2.35.353 1.702 1.724-.404 2.436 2.105-1.149 2.112 1.149-.404-2.436 1.702-1.724-2.357-.353-1.053-2.22zm8.424-13.841l-.666 1.349-1.486.216 1.076 1.047-.256 1.485 1.332-.7 1.331.7-.256-1.485 1.076-1.047-1.486-.216-.665-1.349zm-8.424-7.923l-.5 1.024-1.133.159.82.797-.194 1.127 1.007-.535 1.013.535-.193-1.127.819-.797-1.132-.159-.507-1.024z" class="G"/><g class="I"><path d="M37.768 88.002h85.689v34.257H37.768V88.002z"/><path d="M123.44 122.264v6.807l-6.17-6.807h6.17z"/></g><path d="M107.02 119.322c-7.364 0-13.335-5.97-13.335-13.335s5.97-13.335 13.335-13.335 13.335 5.97 13.335 13.335-5.97 13.335-13.335 13.335z" class="C"/><path d="M84.095 94.422l-.973 1.975-2.174.313 1.571 1.537-.37 2.168 1.946-1.024 1.946 1.024-.37-2.168 1.571-1.537-2.174-.313-.973-1.975z" class="E"/><g class="G"><use xlink:href="#D"/><use xlink:href="#D" x="-9"/><use xlink:href="#D" x="-18"/><use xlink:href="#D" x="-27"/></g><path d="M46.584 105.133h40.659v.854H46.584v-.854z" class="B"/><path d="M51.029 107.734h36.214v.854H51.029v-.854zm6.277 2.601h29.937v.854H57.306v-.854zm-2.789 2.601h32.725v.854H54.517v-.854z" class="C"/><mask id="A" maskUnits="userSpaceOnUse" x="93" y="88" width="28" height="32"><path d="M93.685 106.106a.76.76 0 0 1 0-.113c-.002-1.382.213-2.755.638-4.07a47.53 47.53 0 0 1 1.161-4.866 11.45 11.45 0 0 1 5.19-6.892 4.3 4.3 0 0 1 .513-.319.45.45 0 0 1 .113-.068l.12-.063c3.244-1.787 6.892-.95 9.675.319a9.03 9.03 0 0 1 3.501 2.8 13.97 13.97 0 0 1 2.526 4.473c1.67 1.951 2.741 4.343 3.085 6.888a13.34 13.34 0 0 1-1.149 7.459 19.21 19.21 0 0 1-.166 2.061c0 .091-.136.074-.136 0v-1.44c-.171.311-.361.618-.569.922v.706c0 .33-.49.688-1.321 1.047a13.33 13.33 0 0 1-4.57 3.273c-1.739.754-3.618 1.129-5.513 1.1s-3.762-.461-5.477-1.268-3.238-1.971-4.468-3.413a13.47 13.47 0 0 1-2.333-1.388c-.359-.268-.472-1.708-.37-3.722a11.05 11.05 0 0 1-.319-1.44l-.404 4.502c0 .108-.171.096-.171 0a64.37 64.37 0 0 1 .444-6.489zm4.422-13.3l.376-.512c-1.473 1.723-2.503 3.781-2.999 5.993l-.41 1.759c.219-.436.463-.86.728-1.269.649-2.498 1.417-4.701 2.305-5.97z" class="C"/></mask><g mask="url(#A)"><path d="M111.118 90.04c6.175 2.777 7.507 11.479 7.103 23.864-.063 1.883-15.987 5.156-23.693-.649-1.241-.939.524-16.09 3.58-20.449 3.79-5.424 9.191-4.485 13.01-2.766z" class="B"/><path d="M111.289 90.165c3.227 1.645 5.304 4.912 6.26 8.338a52.44 52.44 0 0 1 1.281 7.746c.345 2.478.383 4.99.114 7.478 0 .018-.007.036-.02.048s-.03.021-.049.021-.035-.008-.048-.021-.02-.03-.02-.048c.026-4.691-.46-9.37-1.451-13.955-.803-3.842-2.778-7.279-6.17-9.357-.153-.091-.039-.319.103-.251zm-15.811 6.892a11.45 11.45 0 0 1 7.752-8.031v.046c-4.28 1.616-6.682 4.877-7.763 9.203-1.178 4.713-1.656 9.493-2.043 14.314 0 .023-.009.044-.025.06s-.038.025-.06.025-.044-.009-.06-.025-.025-.037-.025-.06a58.65 58.65 0 0 1 2.225-15.532z" class="B"/><path d="M115.7 118.542l-.052.04c-2.794 1.907-8.315 5.253-11.263 4.189a6.65 6.65 0 0 1-2.294-1.549c-.647-.672-1.145-1.473-1.462-2.35 1.153-.932 2.372-1.778 3.648-2.533 4.354-2.896 8.281-1.161 11.423 2.203z" fill="#a6a6a6"/><path d="M111.494 116.897c-.2.643-3.609 4.684-6.591 4.343-.973-.108-.598-5.441-.598-5.441l-.062-.399-.865-5.6 6.733-3.728.973-.489.284 3.477v.273c0 .091 0 .217.029.319 0 .285.051.569.068.871l.04.677c.006.234 0 .467.04.7a36.55 36.55 0 0 1-.051 4.997z" class="J"/><path d="M111.397 109.06a11.39 11.39 0 0 1-2.879 3.958 11.4 11.4 0 0 1-4.275 2.382l-.865-5.6 6.733-3.728.973-.489.313 3.477z" class="B"/><path d="M96.451 100.472c-1.559 9.823 4.149 11.866 6.261 12.202 1.918.302 8.127.769 10.694-8.839s-1.138-13.09-5.486-14.04-9.904.865-11.469 10.677z" class="J"/><path d="M98.159 99.903c.215.078.433.144.654.199a1.07 1.07 0 0 0 .711.08c.072-.031.131-.084.169-.152a.35.35 0 0 0 .041-.224.88.88 0 0 0-.66-.598 1.27 1.27 0 0 0-.928 0 .38.38 0 0 0-.218.351.38.38 0 0 0 .229.344zm7.228.29l-.683.068a1.09 1.09 0 0 1-.712-.056c-.063-.046-.11-.112-.134-.186a.36.36 0 0 1 .004-.23c.074-.138.184-.253.318-.333s.288-.122.444-.122a1.31 1.31 0 0 1 .911.182.38.38 0 0 1 .143.386.37.37 0 0 1-.103.188c-.051.052-.117.088-.188.103zm-1.582 2.276s.051.04.045.063c-.097.672-.097 1.457.49 1.747v.04c-.74-.188-.735-1.229-.535-1.85z" class="B"/><path d="M104.482 101.832c1.093.04.933 2.22-.074 2.186s-.837-2.214.074-2.186z" class="B"/><path d="M104.903 101.98c.182.137.353.37.569.404s.478-.165.672-.376c0 0 .034 0 .034.029 0 .421-.216.837-.666.865s-.683-.359-.757-.791c0-.08.074-.188.148-.131zm-5.304-.125s-.057 0-.057.057c0 .677-.165 1.451-.791 1.633v.04c.757-.057.933-1.081.848-1.73z" class="B"/><path d="M99.035 101.109c-1.081-.148-1.303 2.026-.302 2.163s1.212-2.032.302-2.163z" class="B"/><path d="M98.569 101.206c-.182.097-.376.29-.569.285s-.393-.262-.518-.507h-.04c-.051.416.04.86.433.979s.66-.216.802-.62c.011-.052-.034-.177-.108-.137zm1.912 5.745l-.262 1.468c.04.581 1.04 1.581 2.948.416.051 0 .154-.063.029-.154-.773-.477-1.68-.688-2.584-.603 0-.131.421-1.565.347-1.577a4.44 4.44 0 0 0-1.099.154l1.513-6.175c.006-.016.006-.033-.001-.049s-.02-.027-.036-.034-.033-.005-.048.002-.028.02-.034.035a34.7 34.7 0 0 0-1.918 6.591c-.04.268.95 0 1.144-.074zm12.936-3.11c-1.058-.148-3.602-3.312-3.266-8.474 0 0 0 4.655.313 5.367s-1.418-1.782-1.207-5.948c-1.386.83-2.882 1.459-4.445 1.867-2.009.387-3.21.273-3.341.12s2.846-.831 3.694-1.668c0 0-5.424 2.003-7.843 1.992-.279 0 .057-5.179 3.984-7.308s9.397.398 10.859 2.06c0 0 1.839.416 3.637 3.335s-1.235 8.821-2.385 8.656z" class="B"/><path d="M111.095 104.667s2.385-2.937 3.734-2.066-.569 5.241-2.277 5.736c-.213.076-.438.108-.664.096s-.446-.07-.649-.169a1.7 1.7 0 0 1-.872-.985l.728-2.612z" class="J"/><path d="M114.243 103.835v.046c-1.19.387-1.873 1.417-2.379 2.498.074-.111.173-.204.287-.274s.244-.113.377-.127.268 0 .395.043a.91.91 0 0 1 .341.205c.005.005.009.012.01.02s-.001.015-.005.022-.01.011-.017.014-.015.003-.022.001a1.04 1.04 0 0 0-.612-.035 1.05 1.05 0 0 0-.527.314c-.233.272-.437.567-.609.882-.062.097-.244.028-.199-.086.074-1.502 1.366-3.471 2.96-3.523z" class="B"/></g><g class="I"><path d="M32.076 44.241h85.69v34.256h-85.69V44.241z"/><path d="M117.749 78.498v6.807l-6.17-6.807h6.17z"/></g><path d="M101.329 75.561c-7.365 0-13.335-5.97-13.335-13.335s5.97-13.335 13.335-13.335 13.335 5.97 13.335 13.335-5.97 13.335-13.335 13.335z" class="C"/><path d="M78.398 51.048l-.973 1.975-2.18.319 1.577 1.537-.37 2.174 1.947-1.03 1.952 1.03-.376-2.174 1.576-1.537-2.18-.319-.973-1.975zm-8.588 0l-.973 1.975-2.18.319 1.576 1.537-.37 2.174 1.947-1.03 1.952 1.03-.37-2.174 1.576-1.537-2.18-.319-.979-1.975z" class="E"/><path d="M61.228 51.048l-.979 1.975-2.18.319 1.576 1.537-.37 2.174 1.952-1.03 1.947 1.03-.37-2.174 1.577-1.537-2.18-.319-.973-1.975zm-8.589 0l-.973 1.975-2.18.319 1.577 1.537-.376 2.174 1.952-1.03 1.952 1.03-.376-2.174 1.577-1.537-2.18-.319-.973-1.975zm-8.588 0l-.973 1.975-2.18.319 1.577 1.537-.37 2.174 1.946-1.03 1.952 1.03-.376-2.174 1.582-1.537-2.18-.319-.979-1.975z" class="G"/><path d="M40.892 61.367h40.659v.854H40.892v-.854z" class="B"/><path d="M57.779 63.968h23.773v.854H57.779v-.854zm-11.326 2.606h35.099v.854H46.453v-.854zm3.028 2.601h32.071v.854H49.481v-.854z" class="C"/><mask id="B" maskUnits="userSpaceOnUse" x="87" y="45" width="28" height="31"><path d="M87.988 62.226a13.34 13.34 0 0 0 6.638 11.538 13.34 13.34 0 0 0 6.649 1.806c2.336.01 4.633-.594 6.662-1.752s3.72-2.827 4.901-4.842a13.34 13.34 0 0 0 1.831-6.642 13.35 13.35 0 0 0-1.726-6.669c-1.15-2.034-2.813-3.73-4.824-4.919-.621-1.992-2.226-3.887-5.805-4.786-7.007-1.747-8.537 3.307-8.708 3.853-.242.649-.449 1.31-.62 1.981a13.27 13.27 0 0 0-4.997 10.432z" class="C"/></mask><g mask="url(#B)"><path d="M97.51 71.065l1.184 5.344 8.059-5.532 2.003 2.954s-5.276 7.137-10.893 7.137c-2.954 0-3.529-6.767-3.529-6.767l3.176-3.136z" class="G"/><path d="M98.865 77.138c2.162.672 6.18-2.436 7.865-5.06.114-.182-.034-2.174-.102-4.604l.062-4.616c0-.307-1.064.182-1.064.182l-1.975.336-6.522 1.138a23.9 23.9 0 0 1 .507 5.816 2.95 2.95 0 0 1-.108.615c.002.034.002.068 0 .102-.29 1.138-.763 5.441 1.337 6.09z" class="K"/><path d="M97.527 70.963c.002.034.002.068 0 .102a5.93 5.93 0 0 0 .962.12c6.34.296 7.689-7.7 7.689-7.7l-2.51-.068-6.522 1.138a23.95 23.95 0 0 1 .507 5.822 2.89 2.89 0 0 1-.125.586z" class="B"/><path d="M107.504 50.923c1.138 3.295-.193 13.022-2.476 15.27-3.312 3.267-8.935 3.802-11.764-.222-2.738-3.904-.751-16.545 1.821-18.611 3.785-3.045 10.7-1.303 12.419 3.563z" class="K"/><path d="M98.159 57.662c0-.029.046.034.04.063-.108.654-.12 1.417.444 1.707v.04c-.734-.194-.706-1.212-.484-1.81z" class="B"/><path d="M98.825 57.053c1.064.063.865 2.185-.125 2.128s-.768-2.18.125-2.128zm-4.496.353s-.057 0-.057.057c-.04.66-.199 1.406-.82 1.571v.034c.723-.034.939-1.03.877-1.662z" class="B"/><path d="M93.805 56.649c-1.053-.182-1.338 1.935-.364 2.1s1.246-1.935.364-2.1zm5.947-.484c-.279-.102-.524-.245-.791-.37a1.38 1.38 0 0 1-.74-.529c-.042-.091-.053-.193-.032-.291a.45.45 0 0 1 .151-.25 1.14 1.14 0 0 1 1.138 0 1.65 1.65 0 0 1 .877.797c.035.086.045.18.029.272a.49.49 0 0 1-.359.383c-.09.023-.185.018-.274-.012zm-6.67-.655c.302 0 .569-.091.865-.137a1.41 1.41 0 0 0 .859-.313c.065-.081.1-.181.1-.285s-.035-.204-.1-.285a1.14 1.14 0 0 0-1.087-.313 1.64 1.64 0 0 0-1.059.529.48.48 0 0 0-.128.264c-.014.099.004.2.05.289a.47.47 0 0 0 .209.205c.089.044.191.061.29.045zm4.696 6.568c-.672.569-2.92.569-2.925.467l.182-1.577c-.194.08-1.178.415-1.138.148a34.05 34.05 0 0 1 1.514-6.699c.004-.013.012-.024.023-.032s.024-.012.037-.012.026.004.037.012.019.019.023.032c-.245 2.106-.854 4.16-1.138 6.261a4.06 4.06 0 0 1 1.087-.222c.074.028-.262 1.474-.256 1.707a6.83 6.83 0 0 0 2.413-.324c.262-.068.319.091.142.239zm8.542-3.301c-.831-.211-1.61-2.937-1.639-5.578 0-1.707-.7-3.842-2.595-4.479-1.258-.427-3.449.609-4.707.302s-1.485-1.019-2.225-1.002-1.565 1.844-1.565 1.844 1.32-5.754 8.724-3.904c7.798 1.952 6.227 8.628 5.476 10.768-.575 1.656-1.469 2.049-1.469 2.049z" class="B"/><path d="M105.774 58.874s2.111-3.17 3.546-2.425-.103 5.31-1.753 5.965a1.71 1.71 0 0 1-1.319.047 1.72 1.72 0 0 1-.958-.906l.484-2.681z" class="K"/><path d="M108.847 57.787v.045c-1.138.501-1.747 1.594-2.151 2.726a.93.93 0 0 1 .264-.302c.109-.08.234-.136.366-.164a.94.94 0 0 1 .764.175c.005.006.007.013.007.021s-.001.015-.004.021-.009.012-.016.015-.013.006-.021.005a1.03 1.03 0 0 0-.632.013c-.205.07-.382.203-.506.38a4.46 4.46 0 0 0-.529.939c-.052.102-.245.051-.205-.068v-.029c-.057-1.502 1.081-3.597 2.663-3.779z" class="B"/></g><g class="I"><path d="M26.385.475h85.689v34.256H26.385V.475z"/><path d="M112.057 34.731v6.813l-6.169-6.812h6.169z"/></g><path d="M95.638 31.794c-7.365 0-13.335-5.97-13.335-13.335s5.97-13.335 13.335-13.335 13.334 5.97 13.334 13.335-5.97 13.335-13.334 13.335z" class="C"/><path d="M72.707 7.737l-.973 1.975-2.18.319 1.576 1.537-.37 2.174 1.946-1.024 1.952 1.024-.376-2.174 1.576-1.537-2.18-.319-.973-1.975zm-8.588 0l-.973 1.975-2.18.319 1.577 1.537-.37 2.174 1.947-1.024 1.952 1.024-.37-2.174 1.576-1.537-2.18-.319-.979-1.975zm-8.583 0l-.979 1.975-2.18.319 1.576 1.537-.37 2.174 1.952-1.024 1.947 1.024-.37-2.174 1.577-1.537-2.18-.319-.973-1.975zm-8.588 0l-.973 1.975-2.18.319 1.576 1.537-.376 2.174 1.952-1.024 1.952 1.024-.376-2.174 1.577-1.537-2.18-.319-.973-1.975zm-8.588 0l-.973 1.975-2.18.319 1.576 1.537-.37 2.174 1.947-1.024 1.952 1.024-.376-2.174 1.582-1.537-2.18-.319-.979-1.975z" class="G"/><path d="M35.201 17.606H75.86v.854H35.201v-.854z" class="B"/><path d="M45.61 20.207h30.25v.854H45.61v-.854zm-5.964 2.601H75.86v.854H39.646v-.854zm20.677 2.601H75.86v.854H60.323v-.854z" class="C"/><path d="M81.654 28.613h1.138c.114-1.451 1.036-3.671.802-2.55-.148.841-.198 1.697-.148 2.55h19.265c.222-2.186-.751-5.777-.751-5.777 1.138 1.804 1.542 4.365 1.707 5.777h1.816a13.53 13.53 0 0 0-.274-3.534c.49 1.122.799 2.315.917 3.534h2.071c-.011-2.738-.85-5.408-2.407-7.661-1.4-2.089.33-3.307.296-7.399-.034-5.412-3.751-7.49-4.365-8.059-8.406-7.786-16.033-.569-16.847 4.582-.791 5.031.654 5.691-1.707 10.244-1.725 3.478-1.514 8.292-1.514 8.292z" class="B"/><path d="M104.317 31.441l-.051.034c-2.795 1.907-8.315 5.253-11.264 4.189-.864-.348-1.646-.875-2.293-1.546a6.63 6.63 0 0 1-1.463-2.347c1.152-.935 2.371-1.784 3.648-2.538 4.354-2.891 8.281-1.161 11.423 2.208z" class="E"/><path d="M100.111 29.791c-.199.643-3.608 4.684-6.591 4.343-.973-.108-.598-5.441-.598-5.441l-.063-.398-.865-5.6 6.733-3.728.973-.484.285 3.472v.279a1.2 1.2 0 0 0 .028.313c0 .285.051.569.069.871l.039.677c.006.233 0 .467.04.7a36.55 36.55 0 0 1-.051 4.997z" class="L"/><path d="M100.014 21.931a11.38 11.38 0 0 1-2.879 3.957c-1.235 1.095-2.694 1.908-4.275 2.383l-.865-5.6 6.733-3.705.973-.484.313 3.449z" class="B"/><path d="M85.069 13.394c-1.559 9.823 4.149 11.867 6.26 12.202 1.918.302 8.537 1.093 11.076-8.537s-1.509-13.437-5.868-14.365-9.903.859-11.468 10.7z" class="L"/><path d="M101.608 17.748c-2.459-.296-2.544-7.968-2.544-8.873-.034.569-.205 3.717-.455 3.825a2.5 2.5 0 0 1-.763-.211c.029-.379.029-.759 0-1.138 0-.176-.097.37-.25 1.036l-.444-.165a8.96 8.96 0 0 0-.04-2.39c-.045-.302-.233 1.019-.615 2.151a30.05 30.05 0 0 0-6.363-1.662l-1.616-.125.176-1.707a8.94 8.94 0 0 0-.529 1.707h-.706c.046-1.303.837-3.329.603-3.033-.7.928-1.217 1.981-1.525 3.102-.905.102-1.138.256-1.167 0a10.89 10.89 0 0 1 3.859-6.46c3.329-2.646 9.539-2.846 12.635 1.895 0 0 2.703 2.1 2.902 5.122s-1.735 7.092-3.158 6.927z" class="B"/><path d="M100.731 17.566s2.385-2.942 3.74-2.072-.57 5.242-2.277 5.737a1.67 1.67 0 0 1-.665.104c-.226-.011-.448-.067-.652-.166a1.68 1.68 0 0 1-.863-.996l.717-2.607z" class="L"/><path d="M103.85 16.735c.029 0 .029.034 0 .04-1.189.387-1.872 1.417-2.379 2.499a.92.92 0 0 1 .665-.402.92.92 0 0 1 .735.248c.006.005.009.013.01.02s0 .015-.004.022-.01.012-.018.014-.015.003-.022.001a1.05 1.05 0 0 0-.612-.035c-.203.05-.386.159-.526.314a5.18 5.18 0 0 0-.609.882c-.063.102-.245.034-.194-.085.108-1.502 1.389-3.483 2.954-3.517z" class="B"/><path d="M89.178 19.085c.208.427.524.792.916 1.059a1.25 1.25 0 0 0 .734.199c.569-.034.677-.524.666-.968a2.96 2.96 0 0 0-.114-.694c-.673.364-1.444.506-2.203.404z" class="C"/><g class="B"><path d="M87.123 12.165c.233 0 .45-.051.683-.08.244.005.482-.071.677-.216a.35.35 0 0 0 .039-.432.89.89 0 0 0-.384-.252c-.148-.049-.306-.058-.459-.027a1.3 1.3 0 0 0-.848.381.38.38 0 0 0-.092.195c-.011.072 0 .147.031.213s.081.123.143.161a.38.38 0 0 0 .208.056zm6.836.814a5.41 5.41 0 0 1-.654-.199c-.241-.037-.464-.153-.632-.33a.36.36 0 0 1 .04-.433c.121-.098.267-.161.421-.183a.87.87 0 0 1 .456.058c.312.073.586.259.768.524.038.063.057.135.055.209s-.026.144-.069.204-.102.106-.17.133-.143.033-.215.018zm-1.537 2.384s.051.04.046.063c-.097.672-.097 1.457.489 1.747v.04c-.74-.188-.734-1.229-.535-1.85z"/><path d="M93.099 14.726c1.093.04.933 2.22-.074 2.186s-.837-2.214.074-2.186z"/><path d="M93.52 14.874c.182.137.353.37.569.41s.478-.171.672-.376h.034c0 .421-.216.837-.666.871s-.683-.364-.757-.791c0-.057.074-.171.148-.114zm-5.304-.125s-.057.028-.057.057c0 .677-.165 1.451-.791 1.633v.04c.757-.057.933-1.081.848-1.73z"/><path d="M87.653 14.009c-1.081-.154-1.303 2.021-.302 2.163s1.212-2.038.302-2.163z"/><path d="M87.186 14.1c-.182.102-.376.29-.569.285s-.393-.262-.518-.507h-.04c-.051.415.04.859.433.985s.66-.222.802-.626c.011-.051-.034-.171-.108-.137zm1.912 3.745l-.262 1.468c0 .046.108.08.267.102.404.11.829.106 1.231-.01a2.27 2.27 0 0 0 1.046-.65c.034-.04 0-.097-.068-.068-.641.362-1.381.508-2.112.415 0-.137.438-1.707.364-1.707a4.21 4.21 0 0 0-1.099.159l1.514-6.181a.05.05 0 0 0 .003-.024c-.001-.008-.003-.016-.007-.024s-.009-.014-.015-.019-.013-.009-.021-.012a.05.05 0 0 0-.024-.003c-.008.001-.016.003-.024.007s-.014.009-.019.015-.01.014-.012.021a34.56 34.56 0 0 0-1.907 6.613c-.04.239.95-.04 1.144-.102z"/></g><path d="M34.814 182.308s-13.09-2.959-20.227-9.556-11.161-18.417-11.161-18.417a111.86 111.86 0 0 1 14.65 3.848c1.172 1.252 3.415 3.83 4.434 6.26a29.75 29.75 0 0 0 .034-4.479 19.89 19.89 0 0 1 4.656 2.846c5.936 5.179 7.615 19.498 7.615 19.498z" class="D"/><path d="M11.582 160.078l-5.367-3.666a.1.1 0 0 1-.033-.062c-.003-.024.002-.048.015-.069s.033-.035.056-.043.048-.006.07.004a161.49 161.49 0 0 1 9.897 6.408l3.307 2.436-.228-.387-1.218-1.946a27.89 27.89 0 0 0-2.777-3.7c-.034-.045.028-.108.068-.062l2.96 3.58c.444.569.848 1.2 1.241 1.826l.569.991.199.336 4.9 4.171a54.6 54.6 0 0 1 2.806 2.806l-1.531-4.735c-.003-.007-.003-.014-.002-.022s.004-.014.008-.02.01-.011.016-.014a.05.05 0 0 1 .021-.005c.007 0 .015.001.021.005s.012.008.016.014.007.013.008.02 0 .015-.002.022l1.633 4.951 2.846 3.364c0-.068-.029-.142-.046-.211l-.467-1.844-1.064-3.511a20.48 20.48 0 0 0-3.512-6.631c-.034-.039.028-.102.068-.056 2.55 3.016 4.046 6.641 5.003 10.443l.398 1.673c.068.302.142.604.194.905.398.535.785 1.076 1.138 1.628 2.223 3.397 4.076 7.022 5.526 10.814 1.633 4.272 3.031 8.631 4.189 13.056 0 .085-.108.114-.136 0-2.556-7.644-5.162-15.367-9.539-22.231-.923-1.44-1.919-2.832-2.982-4.172a24.68 24.68 0 0 1-6.351-1.263 28.24 28.24 0 0 1-6.369-3.079 37.91 37.91 0 0 1-3.261-2.464c-.019-.018-.022-.025-.023-.032s-.001-.013 0-.02.005-.013.009-.018.01-.009.016-.012.013-.005.02-.004.014.001.02.004.011.008.016.013c1.823 1.473 3.837 2.693 5.987 3.626a32.44 32.44 0 0 0 6.591 2.208c.962.211 1.941.37 2.92.501a53.62 53.62 0 0 0-3.853-4.269c-.438-.438-.894-.859-1.349-1.286-1.523-1.067-3.14-1.993-4.832-2.766-2.14-1.036-4.246-2.134-6.363-3.21l-3.591-1.816c-.051-.028 0-.102.051-.079 2.146 1.041 4.325 2.009 6.494 2.999 2.038.934 4.103 1.873 6.061 2.971l.245.148c-1.77-1.537-3.603-3.005-5.475-4.422-1.685-1.281-3.455-2.561-5.23-3.796zm.745 6.738l3.193 1.366c1.047.49 2.111 1.099 3.136 1.708.008.006.013.014.015.024s0 .019-.005.027-.013.015-.022.018-.019.003-.028-.001l-3.13-1.485-3.187-1.571c-.08-.023-.023-.108.028-.086z" class="B"/><path d="M77.249 116.476c-2.412 3.114-3.779 6.911-3.904 10.848-.04 1.172.142 2.806.279 4.724-4.872 2.601-8.537 7.285-8.537 7.285 2.766-1.662 6.568-2.334 8.617-2.061-.067 1.313-.235 2.618-.501 3.905-.905-.052-2.652.068-5.538 1.092a12.42 12.42 0 0 1 4.991.996c-2.328 7.399-9.248 15.02-28.36 18.253 0 0-3.688-12.977 3.381-26.898 5.743-11.269 29.572-18.144 29.572-18.144z" class="D"/><g class="B"><path d="M37.688 193.241l1.241-9.465a187.22 187.22 0 0 1 3.853-18.713 74.3 74.3 0 0 1 2.76-8.537 12.48 12.48 0 0 1-.074-1.531v-1.832a43.89 43.89 0 0 1 .171-3.671c.196-2.417.59-4.814 1.178-7.166l1.138-4.052c.005-.01.013-.017.023-.021s.021-.005.032-.001.019.01.025.019.008.021.006.031a52.48 52.48 0 0 0-1.4 7.132c-.345 2.377-.56 4.771-.643 7.171l-.04 1.975v.842a61.86 61.86 0 0 1 3.255-6.653 81.2 81.2 0 0 1 6.545-9.789 4.25 4.25 0 0 1 .154-1.07l.279-1.281.654-2.601 1.645-5.122c.003-.009.009-.016.017-.022s.017-.008.026-.008.018.003.026.008.014.013.017.022c-.506 1.707-.842 3.449-1.229 5.173l-.569 2.556-.273 1.28v.097l2.368-2.88c3.654-4.28 7.655-8.229 11.679-12.151.495-.484 1.007-.95 1.508-1.428.04-.04.102 0 .063.068-3.853 3.984-7.644 8.076-11.229 12.328l-2.521 3.067 1.303-.865c1.138-.728 2.242-1.434 3.415-2.083s2.328-1.286 3.517-1.878 2.538-1.099 3.716-1.787c.051-.029.097.057.046.079-1.209.557-2.375 1.202-3.489 1.93l-3.466 2.111-3.369 2.14c-.928.604-1.844 1.264-2.812 1.822a90.75 90.75 0 0 0-6.124 8.912 66.32 66.32 0 0 0-3.164 6.005l.689-.302 1.719-.746 3.381-1.479c2.146-.928 4.325-1.787 6.426-2.812 1.179-.557 2.32-1.192 3.415-1.901.046-.034.091.046.046.074-3.921 2.704-8.315 4.605-12.652 6.528l-1.884.831c-.518.228-1.03.484-1.565.683a66.89 66.89 0 0 0-3.233 8.856 180.38 180.38 0 0 0-4.178 18.491c-1.093 6.261-1.833 12.521-2.407 18.844l-.233 2.357a.25.25 0 0 1-.248.212.25.25 0 0 1-.248-.212c.057-3.216.381-6.426.717-9.585zm11.628-52.81c.353-1.941.871-3.842 1.394-5.743 0-.056.097-.034.085 0l-1.184 5.692-.945 5.816c0 .035-.057.035-.051 0a51.57 51.57 0 0 1 .7-5.765zm8.241 5.27a34.6 34.6 0 0 1 4.155-2.339l2.106-1.041 2.208-1.013c.01-.003.021-.002.03.002s.017.012.022.021.006.02.004.03-.008.02-.016.026l-2.049 1.139-2.117 1.138-4.24 2.191a.1.1 0 0 1-.053-.012c-.017-.008-.031-.021-.041-.036s-.017-.033-.018-.052a.11.11 0 0 1 .01-.054z"/><path opacity=".1" d="M34.575 159.662s-12.089-2.885-17.643-10.995c-5.304-7.746-7.017-20.945-7.154-22.106.222 1.065 2.715 12.601 10.945 17.974 6.295 4.137 12.396 7.524 13.853 15.127z"/><path d="M23.414 138.792c2.151 1.977 3.698 4.522 4.462 7.342 0 0-.034.04-.04 0-.889-2.752-2.425-5.25-4.479-7.285-.04-.029.017-.097.057-.057z"/></g><path d="M34.575 159.662s-12.089-2.885-17.643-10.996c-5.304-7.745-7.017-20.944-7.154-22.105-.002-.028-.002-.057 0-.085 0 0 5.794 8.241 11.889 10.347s14.655 9.385 12.908 22.839z" class="D"/><path d="M11.912 131.04a49.46 49.46 0 0 0 3.722 6.392 25.53 25.53 0 0 0 4.974 5.122l5.037 3.762-.034-.057-.99-1.355-2.214-2.544-4.382-4.991a18.72 18.72 0 0 1-1.935-3.125c-.029-.051.057-.079.085-.028 1.958 4.086 5.874 6.699 8.668 10.148a25.19 25.19 0 0 1 1.138 1.531c.276.389.508.807.694 1.246a25.26 25.26 0 0 1 4.121 4.166 16.33 16.33 0 0 0-.484-2.345 11.96 11.96 0 0 0-1.28-3.062c-.029-.051.045-.096.074-.051a14.65 14.65 0 0 1 1.411 3.045 10.5 10.5 0 0 1 .438 2.607c.598.81 1.143 1.658 1.633 2.538l-.148-.774a57.82 57.82 0 0 0-.82-3.591 21.48 21.48 0 0 0-2.908-6.83c-.034-.045.04-.097.074-.051a25.82 25.82 0 0 1 3.221 6.665c.387 1.183.694 2.39.967 3.608.131.597.25 1.195.364 1.793.063.307.125.626.176.944a43.35 43.35 0 0 1 2.789 8.196 119.63 119.63 0 0 1 2.578 15.281 126.94 126.94 0 0 1 .837 16.238c0 .677-.051 1.36-.085 2.037 0 .177-.273.2-.279 0l-.347-8.047a164.64 164.64 0 0 0-.683-8.031 143.16 143.16 0 0 0-2.516-15.628c-.985-4.423-2.277-8.873-4.667-12.743a23.8 23.8 0 0 0-4.365-5.185c-1.707-1.525-3.546-2.846-5.333-4.263a29.71 29.71 0 0 1-4.895-4.707 38.52 38.52 0 0 1-3.847-6.26c-.284-.569-.569-1.087-.865-1.634-.023-.017.051-.068.074-.017zM14 132.81c.791 1.629 1.691 3.204 2.692 4.713 0 .034-.028.068-.057.034a32.66 32.66 0 0 1-2.72-4.718c-.023-.052.063-.08.085-.029z" class="B"/><path d="M78.933 154.335s.194 17.177-10.079 22.14-15.776.825-22.765 2.487c.267-.41 5.248-7.575 13.17-9.545 8.167-2.037 17.205-7.922 19.675-15.082z" class="D"/><g class="B"><path opacity=".1" d="M78.933 154.335s.194 17.177-10.079 22.14-15.776.825-22.765 2.487a38.72 38.72 0 0 1 11.673-3.449c6.5-.786 18.878-5.003 21.172-21.178z"/><path d="M45.423 179.269a17.24 17.24 0 0 1 4.081-2.766l.671-.29c.108-.137.228-.268.347-.393l.968-.916c.642-.559 1.334-1.058 2.066-1.491 1.707-1.002 3.563-1.708 5.304-2.63.051-.028.097.051.045.074l-2.533 1.429-2.436 1.44c-.713.459-1.392.969-2.032 1.525l-.529.506a26.33 26.33 0 0 1 3.472-.922l5.657-1.052c.921-.196 1.831-.441 2.726-.735l2.51-2.111a20.96 20.96 0 0 0 2.658-2.943c.034-.051.108 0 .074.046-1.247 1.684-2.657 3.239-4.212 4.644l1.315-.569a21.2 21.2 0 0 0 8.753-7.279c.029-.046.108 0 .074.045a24 24 0 0 1-7.08 6.83c-1.406.874-2.907 1.584-4.473 2.117a42.24 42.24 0 0 1-5.56 1.315 38.84 38.84 0 0 0-5.447 1.292 16.59 16.59 0 0 0-4.553 2.402c-2.615 2.032-4.721 4.645-6.152 7.632-1.946 3.898-2.874 8.258-3.415 12.561 0 .182-.307.182-.29 0 .489-7.234 2.419-14.747 7.991-19.761zm11.917-5.6a5.89 5.89 0 0 1 2.111-1.918c.975-.506 1.831-1.214 2.51-2.078.034-.045.114 0 .08.046-.617.788-1.369 1.46-2.22 1.986-.934.495-1.757 1.174-2.419 1.998-.029.04-.091.006-.063-.034z"/></g><path d="M51.888 191.949l-.467 9.442-1.428 28.867H28.44l-1.429-28.867-.467-9.442h25.344z" class="E"/><path d="M51.888 191.949l-.467 9.442h-24.41l-.467-9.442h25.344z" class="B"/><path d="M53.402 197.015H25.03v-9.01h28.372v9.01z" class="E"/><defs ><path id="D" d="M75.611 94.422l-.973 1.975-2.174.313 1.571 1.537-.37 2.168 1.946-1.024 1.947 1.024-.37-2.168 1.571-1.537-2.174-.313-.973-1.975z"/></defs></svg>