<svg width="30" height="30" viewBox="0 0 30 30" fill="none" xmlns="http://www.w3.org/2000/svg">
<path d="M15 2.5C17.4864 2.5 19.871 3.48772 21.6291 5.24587C23.3873 7.00403 24.375 9.3886 24.375 11.875C24.375 15.085 22.625 17.695 20.8125 19.55C20.092 20.2799 19.3177 20.9547 18.4962 21.5687C17.7537 22.1262 16.0563 23.1713 16.0563 23.1713C15.7343 23.3542 15.3703 23.4505 15 23.4505C14.6297 23.4505 14.2657 23.3542 13.9437 23.1713C13.101 22.6833 12.2863 22.1483 11.5038 21.5687C10.6819 20.9551 9.90764 20.2803 9.1875 19.55C7.375 17.695 5.625 15.085 5.625 11.875C5.625 9.3886 6.61272 7.00403 8.37087 5.24587C10.129 3.48772 12.5136 2.5 15 2.5ZM15 9.375C14.337 9.375 13.7011 9.63839 13.2322 10.1072C12.7634 10.5761 12.5 11.212 12.5 11.875C12.5 12.538 12.7634 13.1739 13.2322 13.6428C13.7011 14.1116 14.337 14.375 15 14.375C15.663 14.375 16.2989 14.1116 16.7678 13.6428C17.2366 13.1739 17.5 12.538 17.5 11.875C17.5 11.212 17.2366 10.5761 16.7678 10.1072C16.2989 9.63839 15.663 9.375 15 9.375Z" fill="#2C2E35"/>
<path d="M9.35104 20.904C9.06036 20.7446 8.71826 20.7072 8.4 20.8C7.565 21.0438 6.8 21.3563 6.2125 21.7575C5.66875 22.1313 5 22.7825 5 23.75C5 24.7288 5.685 25.3838 6.2375 25.7588C6.835 26.1613 7.61625 26.475 8.47 26.7188C10.1925 27.2125 12.5 27.5 15 27.5C17.5 27.5 19.8075 27.2125 21.53 26.7188C22.3838 26.475 23.165 26.1613 23.7625 25.7588C24.315 25.385 25 24.7288 25 23.75C25 22.7825 24.3313 22.1313 23.7875 21.7575C23.2 21.3563 22.435 21.0438 21.6 20.8C21.2837 20.7136 20.9461 20.755 20.66 20.9152C20.3739 21.0754 20.1622 21.3416 20.0705 21.6564C19.9789 21.9713 20.0146 22.3095 20.17 22.5982C20.3254 22.887 20.588 23.1031 20.9013 23.2C21.5263 23.3825 21.9763 23.575 22.2638 23.75C21.9663 23.9288 21.4975 24.1288 20.8437 24.315C19.4 24.7275 17.3337 25 15 25C12.6663 25 10.6 24.7275 9.15625 24.315C8.50375 24.1288 8.03375 23.9288 7.73625 23.75C8.025 23.575 8.475 23.3825 9.1 23.2C9.41826 23.1072 9.68661 22.8917 9.84602 22.601C10.0054 22.3104 10.0428 21.9683 9.95 21.65C9.85717 21.3317 9.64172 21.0634 9.35104 20.904Z" fill="#FFCE28"/>
</svg>
