<svg width="70" height="58" viewBox="0 0 70 58" fill="none" xmlns="http://www.w3.org/2000/svg">
<g clip-path="url(#clip0_704_1070)">
<path d="M70 0.5L57.8559 11.9609L69.4726 31.5138L70 30.8583V0.5ZM0 0.667206V33.8868C0.658824 33.9724 1.45044 34.0196 2.24926 34.028C3.99485 34.0463 5.43368 33.9324 6.24191 33.8597L13.9853 14.2663L0 0.667206ZM57.2285 16.0878L56.1932 16.7578C56.1712 16.7721 55.4047 17.2484 55.1796 17.3887L53.62 18.3328L53.6421 18.3461C52.9194 18.7956 52.7185 18.9221 51.8984 19.4313C51.4822 19.6897 51.4719 19.6958 51.0772 19.9409C48.0934 18.3369 44.8557 17.1041 41.0775 16.1347C36.3257 17.5703 31.2919 19.6477 26.2654 21.5968C28.3522 24.1096 30.6713 24.9278 33.0074 24.9571C35.7162 24.9909 38.4853 23.813 40.3924 22.4933L41.4806 21.7403L42.5726 23.3183L59.551 35.5727L66.1852 31.1628L57.2285 16.0878ZM15.9525 16.4908L9.28088 33.3712L11.7294 35.254L16.6209 29.7099L17.1679 29.6758C17.3885 29.6619 17.6062 29.6555 17.8209 29.6566C19.3226 29.6663 20.6653 30.0561 21.6724 30.9449C22.4182 31.6025 22.9141 32.4781 23.2018 33.4919L23.5371 33.4711C25.301 33.3608 26.8903 33.7247 28.0415 34.7402C29.1925 35.7559 29.7518 37.2877 29.8621 39.0519L29.8724 39.2108C30.8194 39.3896 31.6672 39.7625 32.3566 40.3708C33.5078 41.3863 34.0669 42.9178 34.1772 44.6821L34.2062 45.1409C34.3002 45.1707 34.3933 45.2029 34.4856 45.2377L36.0026 43.1081L45.82 50.1021C46.7706 49.8677 47.3372 49.5028 47.6524 49.06C47.9681 48.6171 48.1278 47.9615 48.0382 46.9855L36.4829 38.7105L37.2462 37.6449L38.2271 36.2677L51.119 45.4514C52.0696 45.2171 52.6366 44.8522 52.9518 44.4094C53.2671 43.9668 53.4268 43.3128 53.3378 42.3386L38.6704 31.9327L40.2019 29.7738L54.8721 40.1816C55.8235 39.9472 56.3907 39.5824 56.7063 39.1393C57.0222 38.6959 57.1818 38.0399 57.0916 37.0621L40.8504 25.34C38.6953 26.6177 35.9384 27.6412 32.9744 27.6041C29.5057 27.5608 25.7954 25.9033 23.066 21.7144C22.9581 21.5488 22.8886 21.3611 22.8627 21.165C22.8368 20.969 22.8552 20.7697 22.9165 20.5817C22.9777 20.3937 23.0803 20.2218 23.2167 20.0787C23.3531 19.9356 23.5199 19.8248 23.7047 19.7546C25.6185 19.0274 27.5522 18.259 29.4904 17.4966L15.9525 16.4908ZM17.8499 32.3172L10.8551 40.2452C10.9915 41.2372 11.3022 41.8543 11.7209 42.2237C12.1396 42.5931 12.7907 42.8244 13.7921 42.8361L20.7866 34.9084C20.6503 33.9162 20.3396 33.2988 19.9209 32.9294C19.5022 32.56 18.8513 32.3287 17.8499 32.3172ZM24.2187 36.1128L16.3197 45.0658C16.4559 46.058 16.7668 46.6753 17.1853 47.0447C17.6044 47.4138 18.2551 47.6452 19.2566 47.6565L27.1556 38.7038C27.0194 37.7115 26.7085 37.0944 26.2899 36.7249C25.8713 36.3555 25.2201 36.1244 24.2187 36.1128ZM28.5334 41.7431L21.5393 49.6711C21.6756 50.6631 21.9863 51.2803 22.405 51.6499C22.8238 52.0193 23.4749 52.2503 24.4762 52.2619L31.4706 44.3349C31.3343 43.3422 31.0235 42.725 30.6049 42.3555C30.1862 41.9861 29.5349 41.7547 28.5334 41.7431ZM32.166 47.4986L26.461 54.0103C26.5971 55.0044 26.9078 55.6224 27.3269 55.9921C27.7453 56.3612 28.3956 56.5924 29.3956 56.6043L35.1009 50.0925C34.9647 49.0987 34.6538 48.4808 34.2347 48.1108C33.8165 47.7416 33.166 47.5106 32.166 47.4986ZM37.3634 48.203C37.6125 48.8824 37.7565 49.6353 37.8066 50.4371L37.8407 50.9818L36.6235 52.3712L40.5535 55.1708C41.5041 54.9363 42.0706 54.5715 42.3859 54.1287C42.7013 53.6861 42.8613 53.0311 42.7724 52.0562L37.3634 48.203Z" fill="#2C2E35"/>
<path d="M6 34L14 14L16 16.5L9.5 33.5L6 34Z" fill="#FFCE28"/>
<path d="M69.5001 31.4999L58 11.5L57.0001 15.9999L66 31.5L69.5001 31.4999Z" fill="#FFCE28"/>
</g>
<defs>
<clipPath id="clip0_704_1070">
<rect width="70" height="57" fill="white" transform="translate(0 0.5)"/>
</clipPath>
</defs>
</svg>
