<svg width="89" height="101" viewBox="0 0 89 101" fill="none" xmlns="http://www.w3.org/2000/svg">
<g clip-path="url(#clip0_666_1032)">
<path d="M39.4748 11.7032C39.4749 11.6341 39.4066 11.5858 39.3414 11.6088L9.60642 22.1379C9.56649 22.1521 9.53979 22.1898 9.53979 22.2322V55.1317C9.53979 55.1368 9.54018 55.1419 9.54096 55.1469L9.93239 57.6911L11.5006 62.9835C11.5021 62.9886 11.5039 62.9935 11.5062 62.9983L13.6581 67.4978C13.6607 67.5032 13.6638 67.5084 13.6673 67.5132L16.2139 71.0393L19.5509 74.5726L21.5139 76.143L23.4696 77.512C23.4744 77.5153 23.4789 77.5191 23.483 77.5232L23.6636 77.7039C23.6699 77.7101 23.677 77.7156 23.6847 77.72L26.4213 79.2837L31.1324 82.2281L33.488 83.9948L36.3343 86.2522L39.2102 88.8498C39.2744 88.9079 39.3771 88.8623 39.3772 88.7757L39.4748 11.7032Z" fill="#FBFBFB" stroke="#2C2E35"/>
<path d="M39.3771 11.7032C39.377 11.6341 39.4454 11.5858 39.5105 11.6088L69.2456 22.1379C69.2856 22.1521 69.3123 22.1898 69.3123 22.2322V55.1317C69.3123 55.1368 69.3119 55.1419 69.3111 55.1469L68.9197 57.6911L67.3515 62.9835C67.35 62.9886 67.3481 62.9935 67.3458 62.9983L65.1938 67.4978C65.1913 67.5032 65.1882 67.5084 65.1847 67.5132L62.6382 71.0393L59.3011 74.5726L57.3382 76.143L55.3823 77.512C55.3776 77.5153 55.3731 77.5191 55.369 77.5232L55.1883 77.7039C55.182 77.7101 55.1749 77.7156 55.1672 77.72L52.4308 79.2837L47.7196 82.2281L45.3641 83.9948L42.5178 86.2522L39.6419 88.8498C39.5776 88.9079 39.475 88.8623 39.4749 88.7757L39.3771 11.7032Z" fill="#F8F8F8" stroke="#2C2E35"/>
<path d="M26.0287 28.9339L15.4287 38.7487L43.9899 69.9598L46.4436 65.9358L48.4065 62.9913L50.4676 59.8506L53.1176 56.121L55.6695 52.5876L58.1232 49.4469L60.7732 46.3061L63.3251 43.2635L66.2695 40.1228L69.4103 36.9821L72.4529 34.2339L75.1029 31.8784L77.9492 29.6209L80.7955 27.4617L84.1325 25.3024L88.3529 23.1432V1.64868L80.9918 6.55609L76.8695 9.69683L72.9436 12.7395L69.4103 15.7821L65.9751 19.0209L64.3066 20.5913L59.3991 25.695L55.3751 30.308L51.5473 35.1172L47.5232 40.8098L43.9899 46.4043L26.0287 28.9339Z" fill="#FFCE28"/>
<path d="M1.68805 23.732C2.55534 23.732 3.25842 23.029 3.25842 22.1617C3.25842 21.2944 2.55534 20.5913 1.68805 20.5913C0.820754 20.5913 0.117676 21.2944 0.117676 22.1617C0.117676 23.029 0.820754 23.732 1.68805 23.732Z" fill="#2C2E35"/>
<path d="M1.68805 23.732C2.55534 23.732 3.25842 23.029 3.25842 22.1617C3.25842 21.2944 2.55534 20.5913 1.68805 20.5913C0.820754 20.5913 0.117676 21.2944 0.117676 22.1617C0.117676 23.029 0.820754 23.732 1.68805 23.732Z" fill="#2C2E35"/>
<path d="M21.3177 87.1359C22.185 87.1359 22.8881 86.4328 22.8881 85.5655C22.8881 84.6982 22.185 83.9951 21.3177 83.9951C20.4504 83.9951 19.7473 84.6982 19.7473 85.5655C19.7473 86.4328 20.4504 87.1359 21.3177 87.1359Z" fill="#2C2E35"/>
<path d="M39.3768 100.68C40.2441 100.68 40.9471 99.9772 40.9471 99.1099C40.9471 98.2426 40.2441 97.5396 39.3768 97.5396C38.5095 97.5396 37.8064 98.2426 37.8064 99.1099C37.8064 99.9772 38.5095 100.68 39.3768 100.68Z" fill="#2C2E35"/>
<path d="M58.2215 87.1359C59.0888 87.1359 59.7919 86.4328 59.7919 85.5655C59.7919 84.6982 59.0888 83.9951 58.2215 83.9951C57.3542 83.9951 56.6511 84.6982 56.6511 85.5655C56.6511 86.4328 57.3542 87.1359 58.2215 87.1359Z" fill="#2C2E35"/>
<path d="M73.7291 69.8617C74.5964 69.8617 75.2994 69.1586 75.2994 68.2913C75.2994 67.424 74.5964 66.7209 73.7291 66.7209C72.8618 66.7209 72.1587 67.424 72.1587 68.2913C72.1587 69.1586 72.8618 69.8617 73.7291 69.8617Z" fill="#2C2E35"/>
<path d="M77.066 47.2875C77.9333 47.2875 78.6363 46.5844 78.6363 45.7171C78.6363 44.8498 77.9333 44.1467 77.066 44.1467C76.1987 44.1467 75.4956 44.8498 75.4956 45.7171C75.4956 46.5844 76.1987 47.2875 77.066 47.2875Z" fill="#2C2E35"/>
<path d="M61.3624 11.1688C62.2297 11.1688 62.9327 10.4657 62.9327 9.59845C62.9327 8.73115 62.2297 8.02808 61.3624 8.02808C60.4951 8.02808 59.792 8.73115 59.792 9.59845C59.792 10.4657 60.4951 11.1688 61.3624 11.1688Z" fill="#2C2E35"/>
<path d="M39.3768 3.31725C40.2441 3.31725 40.9471 2.61418 40.9471 1.74688C40.9471 0.879592 40.2441 0.176514 39.3768 0.176514C38.5095 0.176514 37.8064 0.879592 37.8064 1.74688C37.8064 2.61418 38.5095 3.31725 39.3768 3.31725Z" fill="#2C2E35"/>
<path d="M16.9991 11.1688C17.8664 11.1688 18.5695 10.4657 18.5695 9.59845C18.5695 8.73115 17.8664 8.02808 16.9991 8.02808C16.1318 8.02808 15.4287 8.73115 15.4287 9.59845C15.4287 10.4657 16.1318 11.1688 16.9991 11.1688Z" fill="#2C2E35"/>
<path d="M5.41778 69.8617C6.28507 69.8617 6.98815 69.1586 6.98815 68.2913C6.98815 67.424 6.28507 66.7209 5.41778 66.7209C4.55049 66.7209 3.84741 67.424 3.84741 68.2913C3.84741 69.1586 4.55049 69.8617 5.41778 69.8617Z" fill="#2C2E35"/>
<path d="M1.68805 47.2875C2.55534 47.2875 3.25842 46.5844 3.25842 45.7171C3.25842 44.8498 2.55534 44.1467 1.68805 44.1467C0.820754 44.1467 0.117676 44.8498 0.117676 45.7171C0.117676 46.5844 0.820754 47.2875 1.68805 47.2875Z" fill="#2C2E35"/>
</g>
<defs>
<clipPath id="clip0_666_1032">
<rect width="89" height="101" fill="white"/>
</clipPath>
</defs>
</svg>
